<svg width="576" height="174" viewBox="0 0 576 174" fill="none" xmlns="http://www.w3.org/2000/svg">
<path fill-rule="evenodd" clip-rule="evenodd" d="M356.84 135.951C323.431 160.547 275.007 173.669 233.315 173.669C174.856 173.669 122.227 152.073 82.412 116.154C79.2838 113.329 82.0866 109.48 85.8404 111.679C128.809 136.65 181.938 151.673 236.818 151.673C273.831 151.673 314.547 144.024 351.985 128.152C357.641 125.752 362.371 131.851 356.84 135.951" fill="#FF9900"/>
<path fill-rule="evenodd" clip-rule="evenodd" d="M370.729 120.078C366.475 114.629 342.501 117.504 331.74 118.778C328.462 119.178 327.961 116.329 330.914 114.279C350.008 100.856 381.34 104.731 384.994 109.23C388.647 113.754 384.043 145.124 366.1 160.097C363.347 162.396 360.719 161.171 361.945 158.122C365.974 148.074 375.009 125.552 370.729 120.078" fill="#FF9900"/>
<path fill-rule="evenodd" clip-rule="evenodd" d="M332.49 19.5202V6.47231C332.49 4.49763 333.992 3.17285 335.794 3.17285H394.278C396.155 3.17285 397.656 4.52263 397.656 6.47231V17.6455C397.631 19.5202 396.055 21.9698 393.252 25.8442L362.946 69.0621C374.208 68.7872 386.095 70.4619 396.305 76.211C398.607 77.5108 399.233 79.4105 399.408 81.2852V95.2079C399.408 97.1076 397.306 99.3322 395.104 98.1824C377.111 88.7589 353.211 87.7341 333.316 98.2824C331.289 99.3822 329.162 97.1826 329.162 95.2829V82.06C329.162 79.9354 329.187 76.311 331.314 73.0865L366.425 22.7947H335.869C333.992 22.7947 332.49 21.4699 332.49 19.5202" fill="black"/>
<path fill-rule="evenodd" clip-rule="evenodd" d="M119.15 100.932H101.357C99.6552 100.807 98.3038 99.5321 98.1787 97.9073V6.69722C98.1787 4.87251 99.7053 3.42274 101.607 3.42274H118.199C119.926 3.49768 121.302 4.82251 121.427 6.47224V18.3953H121.753C126.082 6.87217 134.215 1.49805 145.176 1.49805C156.313 1.49805 163.27 6.87217 168.275 18.3953C172.579 6.87217 182.364 1.49805 192.85 1.49805C200.307 1.49805 208.465 4.57255 213.445 11.4714C219.076 19.1452 217.925 30.2934 217.925 40.0668L217.9 97.6324C217.9 99.4571 216.373 100.932 214.472 100.932H196.703C194.927 100.807 193.5 99.3821 193.5 97.6324V49.2903C193.5 45.4409 193.851 35.8425 193 32.193C191.673 26.0691 187.694 24.3443 182.539 24.3443C178.235 24.3443 173.73 27.2189 171.903 31.8181C170.077 36.4174 170.252 44.1161 170.252 49.2903V97.6324C170.252 99.4571 168.725 100.932 166.823 100.932H149.055C147.253 100.807 145.852 99.3821 145.852 97.6324L145.827 49.2903C145.827 39.1169 147.504 24.1444 134.866 24.1444C122.078 24.1444 122.578 38.742 122.578 49.2903V97.6324C122.578 99.4571 121.052 100.932 119.15 100.932" fill="black"/>
<path fill-rule="evenodd" clip-rule="evenodd" d="M448.009 1.49805C474.411 1.49805 488.7 24.1444 488.7 52.9397C488.7 80.7601 472.909 102.832 448.009 102.832C422.083 102.832 407.969 80.1852 407.969 51.9648C407.969 23.5694 422.258 1.49805 448.009 1.49805V1.49805ZM448.159 20.12C435.046 20.12 434.22 37.9671 434.22 49.0903C434.22 60.2385 434.045 84.0346 448.009 84.0346C461.798 84.0346 462.449 64.8377 462.449 53.1396C462.449 45.4409 462.124 36.2424 459.796 28.9436C457.794 22.5946 453.815 20.12 448.159 20.12" fill="black"/>
<path fill-rule="evenodd" clip-rule="evenodd" d="M522.933 100.932H505.216C503.439 100.807 502.012 99.3821 502.012 97.6324L501.987 6.39725C502.137 4.72252 503.614 3.42274 505.416 3.42274H521.907C523.459 3.49768 524.735 4.54756 525.086 5.97232V19.92H525.411C530.391 7.44708 537.373 1.49805 549.661 1.49805C557.644 1.49805 565.427 4.37258 570.432 12.2463C575.086 19.5451 575.086 31.8181 575.086 40.6417V98.0573C574.886 99.6571 573.41 100.932 571.658 100.932H553.815C552.188 100.807 550.837 99.6071 550.662 98.0573V48.5154C550.662 38.542 551.813 23.9444 539.525 23.9444C535.196 23.9444 531.217 26.8439 529.24 31.2432C526.737 36.8173 526.412 42.3664 526.412 48.5154V97.6324C526.387 99.4571 524.835 100.932 522.934 100.932" fill="black"/>
<path fill-rule="evenodd" clip-rule="evenodd" d="M285.868 57.3629C285.868 64.2867 286.043 70.0608 282.539 76.2098C279.711 81.209 275.207 84.2835 270.227 84.2835C263.395 84.2835 259.391 79.0843 259.391 71.4106C259.391 56.263 272.979 53.5135 285.868 53.5135V57.3629V57.3629ZM303.811 100.681C302.635 101.731 300.933 101.806 299.606 101.106C293.7 96.2066 292.624 93.9319 289.396 89.2577C279.636 99.2061 272.704 102.181 260.066 102.181C245.076 102.181 233.439 92.9571 233.439 74.4851C233.439 60.0624 241.247 50.239 252.409 45.4398C262.068 41.1905 275.557 40.4406 285.868 39.2658V36.9662C285.868 32.7419 286.193 27.7427 283.69 24.0933C281.538 20.8188 277.384 19.469 273.705 19.469C266.923 19.469 260.892 22.9434 259.416 30.1423C259.115 31.742 257.939 33.3168 256.313 33.3918L239.07 31.542C237.619 31.2171 235.992 30.0423 236.417 27.8177C240.371 6.92106 259.291 0.62207 276.208 0.62207C284.867 0.62207 296.178 2.9217 303.01 9.47063C311.669 17.5443 310.843 28.3176 310.843 40.0407V67.7362C310.843 76.0598 314.296 79.7092 317.55 84.2085C318.676 85.8082 318.926 87.7329 317.474 88.9327C313.846 91.9573 307.389 97.5813 303.836 100.731L303.811 100.681" fill="black"/>
<path fill-rule="evenodd" clip-rule="evenodd" d="M52.6068 57.3629C52.6068 64.2867 52.7819 70.0608 49.2784 76.2098C46.4505 81.209 41.971 84.2835 36.9659 84.2835C30.134 84.2835 26.155 79.0843 26.155 71.4106C26.155 56.263 39.7438 53.5135 52.6068 53.5135V57.3629V57.3629ZM70.5499 100.681C69.3738 101.731 67.672 101.806 66.3457 101.106C60.4397 96.2066 59.3886 93.9319 56.1353 89.2577C46.3755 99.2061 39.4685 102.181 26.8057 102.181C11.8405 102.181 0.178711 92.9571 0.178711 74.4851C0.178711 60.0624 8.01164 50.239 19.1479 45.4398C28.8077 41.1905 42.2963 40.4406 52.6068 39.2658V36.9662C52.6068 32.7419 52.9321 27.7427 50.4546 24.0933C48.2774 20.8188 44.1232 19.469 40.4695 19.469C33.6876 19.469 27.6315 22.9434 26.155 30.1423C25.8547 31.742 24.6785 33.3168 23.0769 33.3918L5.80941 31.542C4.35794 31.2171 2.75632 30.0423 3.15672 27.8177C7.13575 6.92106 26.0299 0.62207 42.947 0.62207C51.6058 0.62207 62.9172 2.9217 69.7491 9.47063C78.4079 17.5443 77.582 28.3176 77.582 40.0407V67.7362C77.582 76.0598 81.0356 79.7092 84.2889 84.2085C85.44 85.8082 85.6903 87.7329 84.2388 88.9327C80.6101 91.9573 74.1536 97.5813 70.6 100.731L70.55 100.681" fill="black"/>
</svg>
