<svg width="79" height="77" viewBox="0 0 79 77" fill="none" xmlns="http://www.w3.org/2000/svg">
<rect x="38.3203" y="36.4089" width="40" height="40" rx="10" fill="#B7DEC2"/>
<path fill-rule="evenodd" clip-rule="evenodd" d="M53.1473 30.0076V17.3425C53.1473 13.1519 49.8773 9.75586 45.8423 9.75586H16.6253C12.5903 9.75586 9.32031 13.1519 9.32031 17.3425V38.2049C9.32031 42.3955 12.5903 45.7915 16.6253 45.7915H20.2763V53.375L27.3203 48.499" fill="white"/>
<path d="M53.1473 30.0076V17.3425C53.1473 13.1519 49.8773 9.75586 45.8423 9.75586H16.6253C12.5903 9.75586 9.32031 13.1519 9.32031 17.3425V38.2049C9.32031 42.3955 12.5903 45.7915 16.6253 45.7915H20.2763V53.375L27.3203 48.499" stroke="#030A21" stroke-width="2" stroke-linecap="round" stroke-linejoin="round"/>
<path fill-rule="evenodd" clip-rule="evenodd" d="M45.3203 59.6063H33.3203C30.0053 59.6063 27.3203 56.8178 27.3203 53.375V36.2389C27.3203 32.7961 30.0053 30.0076 33.3203 30.0076H57.3203C60.6353 30.0076 63.3203 32.7961 63.3203 36.2389V53.375C63.3203 56.8178 60.6353 59.6063 57.3203 59.6063H54.3203V65.8376L45.3203 59.6063Z" stroke="#030A21" stroke-width="2" stroke-linecap="round" stroke-linejoin="round"/>
</svg>
