<svg width="32" height="32" viewBox="0 0 32 32" fill="none" xmlns="http://www.w3.org/2000/svg">
<path d="M27.3821 25.1803V21.7118L18.4167 30.8187C17.4183 31.0262 16.3847 31.1354 15.3258 31.1354C13.7041 31.1354 12.1413 30.8797 10.6741 30.4052C4.48413 28.4051 0 22.5184 0 15.5677C0 6.96977 6.86147 0 15.3258 0C22.7983 0 29.0214 5.43168 30.3774 12.6202C30.5572 13.5746 30.6516 14.5598 30.6516 15.5677C30.6516 19.1956 29.4301 22.5333 27.3821 25.1803Z" fill="#056A67"/>
<path d="M32 12.6204V29.7241H27.3818V21.7119L18.4164 30.8188C17.418 31.0264 16.3844 31.1356 15.3255 31.1356C13.7038 31.1356 12.141 30.8798 10.6738 30.4053L23.5643 17.3114H14.549V12.6204H32Z" fill="#37ED81"/>
</svg>
