<svg width="192" height="82" viewBox="0 0 192 82" fill="none" xmlns="http://www.w3.org/2000/svg">
<path d="M104.079 42.5644H108.013V50.2379C106.956 51.0385 105.768 51.6428 104.505 52.0228C103.208 52.4351 101.857 52.646 100.498 52.6483C98.6865 52.6803 96.8967 52.2471 95.2936 51.3889C93.7907 50.5897 92.5343 49.3831 91.6631 47.9024C90.8037 46.3675 90.3518 44.6313 90.3518 42.8646C90.3518 41.098 90.8037 39.3618 91.6631 37.8268C92.5357 36.3363 93.8021 35.1254 95.3182 34.332C96.9396 33.4757 98.7448 33.0429 100.571 33.0726C102.088 33.054 103.595 33.3373 105.005 33.9066C106.295 34.4389 107.443 35.2734 108.357 36.3422L105.595 38.9361C104.983 38.2613 104.239 37.7254 103.41 37.3632C102.581 37.001 101.686 36.8208 100.784 36.8343C99.6865 36.8112 98.6008 37.0724 97.6292 37.5933C96.7179 38.0681 95.9609 38.8009 95.4493 39.7035C94.942 40.6742 94.6768 41.7568 94.6768 42.8563C94.6768 43.9557 94.942 45.0384 95.4493 46.0091C95.9511 46.9133 96.6922 47.656 97.5882 48.1527C98.5455 48.6819 99.6214 48.9492 100.711 48.9284C101.876 48.9359 103.025 48.6493 104.054 48.0943L104.079 42.5644ZM117.658 38.1104C118.583 37.7347 119.572 37.5504 120.568 37.5682V41.455C120.109 41.455 119.797 41.405 119.642 41.405C119.134 41.3743 118.626 41.4479 118.148 41.6213C117.669 41.7946 117.229 42.0643 116.855 42.4142C116.492 42.8251 116.215 43.3069 116.04 43.8302C115.865 44.3535 115.797 44.9076 115.839 45.4586V52.3231H111.741V37.7851H115.7V39.7035C116.195 38.998 116.873 38.4465 117.658 38.1104ZM125.657 51.5807C124.498 50.9758 123.528 50.0545 122.854 48.92C122.194 47.7424 121.846 46.41 121.846 45.0541C121.846 43.6982 122.194 42.3657 122.854 41.1881C123.524 40.0444 124.495 39.1141 125.657 38.5024C126.913 37.8713 128.296 37.543 129.697 37.543C131.098 37.543 132.481 37.8713 133.737 38.5024C134.89 39.1102 135.854 40.0312 136.524 41.1631C137.19 42.3388 137.54 43.672 137.54 45.0291C137.54 46.3861 137.19 47.7193 136.524 48.895C135.854 50.0269 134.89 50.9479 133.737 51.5557C132.481 52.1868 131.098 52.5151 129.697 52.5151C128.296 52.5151 126.913 52.1868 125.657 51.5557V51.5807ZM132.328 47.9859C132.984 47.1594 133.342 46.129 133.342 45.0666C133.342 44.0042 132.984 42.9738 132.328 42.1473C131.997 41.7767 131.591 41.4828 131.139 41.2857C130.686 41.0885 130.197 40.9927 129.705 41.0046C129.216 40.9878 128.729 41.0765 128.275 41.2648C127.822 41.4531 127.413 41.7368 127.075 42.0973C126.413 42.9211 126.051 43.9525 126.051 45.0165C126.051 46.0806 126.413 47.112 127.075 47.9358C127.414 48.295 127.823 48.5779 128.276 48.7661C128.729 48.9543 129.216 49.0437 129.705 49.0285C130.19 49.051 130.673 48.9699 131.125 48.7903C131.577 48.6107 131.987 48.3367 132.328 47.9859ZM162.847 37.7851L157.676 52.3231H153.693L150.48 43.2983L147.153 52.3231H143.17L138.023 37.7851H141.924L145.301 47.6189L148.8 37.7851H152.308L155.709 47.6189L159.183 37.7851H162.847ZM174.402 51.6224C173.949 51.9453 173.44 52.1774 172.902 52.3064C172.289 52.4658 171.658 52.5443 171.026 52.5399C169.593 52.632 168.18 52.1568 167.084 51.2137C166.596 50.7019 166.22 50.0912 165.98 49.4215C165.74 48.7518 165.641 48.0381 165.69 47.3269V41.3549H163.47V38.1104H165.674V34.5656H169.821V38.1104H173.378V41.3549H169.821V47.2685C169.785 47.7842 169.95 48.2935 170.28 48.6865C170.453 48.8599 170.66 48.9941 170.887 49.0803C171.114 49.1666 171.357 49.2029 171.599 49.1869C172.19 49.1986 172.767 49.0077 173.238 48.6448L174.402 51.6224ZM189.694 39.1864C190.787 40.2706 191.333 41.8749 191.333 43.999V52.3397H187.236V44.6662C187.303 43.7409 187.038 42.822 186.49 42.0806C186.212 41.7904 185.875 41.5654 185.503 41.4213C185.13 41.2772 184.732 41.2176 184.335 41.2465C183.88 41.2291 183.426 41.3083 183.003 41.4792C182.579 41.6501 182.196 41.9089 181.876 42.2391C181.526 42.6368 181.257 43.1009 181.084 43.6047C180.911 44.1086 180.838 44.6422 180.868 45.175V52.3648H176.77V32.3469H180.868V39.3365C181.434 38.7683 182.113 38.3302 182.859 38.052C183.677 37.752 184.54 37.6024 185.408 37.6099C186.189 37.5713 186.971 37.6907 187.706 37.9613C188.442 38.2319 189.118 38.6483 189.694 39.1864ZM93.4742 81.0403C92.3424 80.6942 91.2951 80.1087 90.401 79.3221L91.3845 77.2119C92.1828 77.9134 93.1066 78.4515 94.1053 78.7966C95.2016 79.1979 96.3576 79.4039 97.5227 79.4055C98.7284 79.48 99.9289 79.1898 100.973 78.5714C101.323 78.3448 101.611 78.0317 101.81 77.6613C102.009 77.2909 102.113 76.8751 102.112 76.4529C102.123 76.159 102.074 75.866 101.966 75.593C101.859 75.3199 101.697 75.0729 101.489 74.8681C101.05 74.4448 100.524 74.1258 99.9485 73.934C99.342 73.7171 98.4733 73.4752 97.3588 73.2083C96.2098 72.9418 95.0792 72.5991 93.9742 72.1824C93.1242 71.8433 92.3678 71.2995 91.7696 70.5977C91.1204 69.7796 90.7932 68.745 90.8518 67.6951C90.8499 66.7229 91.1355 65.7725 91.6713 64.9677C92.2623 64.0997 93.0878 63.4247 94.0479 63.0243C95.3013 62.4969 96.6506 62.2467 98.0062 62.2903C99.0993 62.2886 100.188 62.4344 101.243 62.724C102.221 62.9694 103.148 63.3903 103.981 63.9668L103.104 66.127C102.327 65.6279 101.485 65.2405 100.604 64.976C99.7604 64.7225 98.8859 64.5905 98.0062 64.584C96.8203 64.4983 95.6376 64.7898 94.6216 65.418C94.2709 65.6534 93.9836 65.9744 93.7861 66.3517C93.5885 66.7291 93.4869 67.1508 93.4906 67.5783C93.4803 67.8735 93.532 68.1676 93.6422 68.4409C93.7525 68.7142 93.9187 68.9604 94.1299 69.1631C94.5877 69.5847 95.1262 69.9056 95.7115 70.1056C96.5499 70.3935 97.4036 70.6329 98.2684 70.8229C99.4047 71.0938 100.522 71.4421 101.612 71.8655C102.453 72.2053 103.203 72.7426 103.8 73.4335C104.444 74.2284 104.772 75.2404 104.718 76.2694C104.716 77.2385 104.431 78.1851 103.899 78.9885C103.285 79.8685 102.43 80.5446 101.44 80.9319C100.174 81.4435 98.8188 81.6876 97.4571 81.6492C96.1061 81.6639 94.7614 81.4584 93.4742 81.0403ZM113.143 80.6983C112.043 80.0899 111.128 79.1871 110.496 78.0877C109.878 76.9365 109.554 75.6459 109.554 74.3343C109.554 73.0227 109.878 71.7322 110.496 70.581C111.129 69.4863 112.044 68.5892 113.143 67.987C114.324 67.3552 115.644 67.0368 116.978 67.0612C118.16 67.0388 119.33 67.3078 120.387 67.8452C121.37 68.3458 122.181 69.1365 122.715 70.1139L120.772 71.3817C120.368 70.7305 119.803 70.1985 119.133 69.8387C118.46 69.4935 117.715 69.319 116.962 69.3299C116.104 69.3204 115.258 69.5328 114.503 69.9471C113.774 70.3583 113.175 70.9714 112.774 71.7153C112.348 72.525 112.133 73.4326 112.151 74.351C112.131 75.2803 112.345 76.1994 112.774 77.0201C113.175 77.764 113.774 78.3771 114.503 78.7883C115.257 79.2064 116.104 79.4191 116.962 79.4055C117.715 79.4164 118.46 79.2418 119.133 78.8967C119.803 78.5368 120.368 78.0049 120.772 77.3537L122.748 78.5381C122.21 79.5167 121.4 80.3117 120.42 80.8234C119.368 81.3817 118.197 81.6681 117.011 81.6575C115.67 81.6692 114.348 81.3272 113.176 80.665L113.143 80.6983ZM140.253 68.6042C140.811 69.2282 141.238 69.9609 141.51 70.758C141.782 71.5551 141.892 72.4 141.834 73.2417V81.4824H139.285V73.5336C139.369 72.4007 139.016 71.2791 138.302 70.4058C137.932 70.0377 137.489 69.7532 137.003 69.5707C136.518 69.3882 136 69.3118 135.483 69.3466C134.882 69.311 134.281 69.4024 133.717 69.6148C133.153 69.8272 132.638 70.1562 132.205 70.581C131.785 71.0568 131.463 71.6134 131.257 72.2178C131.052 72.8223 130.967 73.4625 131.008 74.1008V81.4824H128.46V61.4645H131.008V69.2214C131.569 68.4897 132.306 67.9179 133.147 67.5616C134.06 67.1701 135.042 66.9769 136.032 66.9945C136.808 66.9556 137.585 67.0751 138.315 67.3458C139.045 67.6165 139.715 68.033 140.285 68.5709L140.253 68.6042ZM151.554 80.6983C150.459 80.0914 149.552 79.1878 148.931 78.0877C148.319 76.9349 147.998 75.6449 147.998 74.3343C147.998 73.0237 148.319 71.7338 148.931 70.581C149.552 69.4857 150.46 68.5876 151.554 67.987C152.717 67.3756 154.006 67.0565 155.315 67.0565C156.624 67.0565 157.914 67.3756 159.077 67.987C160.162 68.5929 161.064 69.4901 161.683 70.581C162.296 71.7338 162.616 73.0237 162.616 74.3343C162.616 75.6449 162.296 76.9349 161.683 78.0877C161.064 79.1834 160.163 80.0862 159.077 80.6983C157.916 81.3172 156.626 81.6405 155.315 81.6405C154.005 81.6405 152.714 81.3172 151.554 80.6983ZM157.749 78.7383C158.466 78.3167 159.051 77.698 159.438 76.9533C159.836 76.134 160.044 75.232 160.044 74.3176C160.044 73.4033 159.836 72.5013 159.438 71.682C159.05 70.9421 158.465 70.329 157.749 69.9137C157.001 69.5085 156.167 69.2965 155.319 69.2965C154.472 69.2965 153.638 69.5085 152.89 69.9137C152.175 70.3334 151.588 70.9452 151.193 71.682C150.784 72.4981 150.57 73.4013 150.57 74.3176C150.57 75.234 150.784 76.1372 151.193 76.9533C151.588 77.695 152.174 78.3123 152.89 78.7383C153.634 79.1544 154.47 79.3726 155.319 79.3726C156.169 79.3726 157.005 79.1544 157.749 78.7383ZM171.067 80.6983C169.974 80.0912 169.069 79.1875 168.452 78.0877C167.84 76.9349 167.519 75.6449 167.519 74.3343C167.519 73.0237 167.84 71.7338 168.452 70.581C169.07 69.4863 169.976 68.5881 171.067 67.987C172.232 67.3788 173.523 67.0616 174.832 67.0616C176.142 67.0616 177.433 67.3788 178.598 67.987C179.681 68.5934 180.579 69.4907 181.196 70.581C181.808 71.7338 182.129 73.0237 182.129 74.3343C182.129 75.6449 181.808 76.9349 181.196 78.0877C180.58 79.1828 179.682 80.0857 178.598 80.6983C177.436 81.3173 176.144 81.6406 174.832 81.6406C173.521 81.6406 172.229 81.3173 171.067 80.6983ZM177.27 78.7383C177.984 78.3161 178.567 77.6974 178.95 76.9533C179.356 76.1362 179.568 75.2334 179.568 74.3176C179.568 73.4019 179.356 72.4991 178.95 71.682C178.566 70.9427 177.983 70.3295 177.27 69.9137C176.518 69.4931 175.67 69.2803 174.812 69.2965C173.953 69.2779 173.105 69.4909 172.353 69.9137C171.635 70.3308 171.045 70.943 170.649 71.682C170.239 72.4981 170.026 73.4013 170.026 74.3176C170.026 75.234 170.239 76.1372 170.649 76.9533C171.084 77.703 171.721 78.3106 172.484 78.7049C173.231 79.1409 174.082 79.3601 174.943 79.3388C175.77 79.3398 176.584 79.1213 177.303 78.7049L177.27 78.7383ZM188.326 61.4312H190.874V81.449H188.326V61.4312Z" fill="white"/>
<path d="M79.8099 32.087C77.8745 23.1739 72.9342 15.0248 65.8547 9.21863C58.7242 3.25963 49.6584 0 40.3888 0C18.1317 0 0 18.3863 0 41C0 49.8621 2.75031 58.3168 7.94534 65.4472C12.5292 71.7627 18.9975 76.7031 26.1789 79.4534L26.0261 79.6062L28.3689 80.2174H28.4199C28.4708 80.2683 28.5727 80.3193 28.6745 80.3193L28.7764 80.3702C32.5453 81.4398 36.4671 82 40.3888 82H41.2037C42.9863 81.9491 44.8199 81.7963 46.6534 81.5416C47.3155 81.4398 47.9776 81.3379 48.7416 81.1851L49.2 81.0323L67.6882 62.6969V81.9491H82V32.087H79.8099ZM62.8497 47.5193L63.1553 47.2137V44.7689H40.3888V35.1429H78.995V78.9441H70.6932V55.4137L47.6211 78.282C47.1627 78.3838 46.7043 78.4348 46.1441 78.5366C44.5652 78.7913 42.7826 78.9441 41.1019 78.995H40.3379C37.4348 78.995 34.5826 78.6894 31.8832 78.0783L62.8497 47.5193ZM28.6236 77.0087C21.4422 74.6149 14.9739 69.8273 10.3901 63.6137C5.60248 57.0435 3.0559 49.2 3.0559 41C3.0559 20.0671 19.8124 3.0559 40.3888 3.0559C57.5528 3.0559 72.6795 15.2286 76.6522 32.087H37.3329V47.8758H58.2149L28.6236 77.0087Z" fill="white"/>
</svg>
