<svg width="112" height="48" viewBox="0 0 112 48" fill="none" xmlns="http://www.w3.org/2000/svg">
<path d="M41.707 38.8191V33.4719L28.0514 47.5116C26.5307 47.8316 24.9564 47.9999 23.3435 47.9999C20.8734 47.9999 18.493 47.6056 16.2583 46.8741C6.82999 43.7906 0 34.7154 0 23.9999C0 10.7449 10.451 0 23.3435 0C34.7251 0 44.2038 8.37374 46.2693 19.456C46.5432 20.9273 46.687 22.446 46.687 23.9999C46.687 29.5929 44.8263 34.7385 41.707 38.8191Z" fill="#056A67"/>
<path d="M48.7407 19.4561V45.824H41.7066V33.472L28.0509 47.5117C26.5302 47.8317 24.9559 48 23.343 48C20.873 48 18.4926 47.6057 16.2578 46.8742L35.8919 26.688H22.1603V19.4561H48.7407Z" fill="#37ED81"/>
<path d="M60.9243 24.9155H63.2269V29.4073C62.6084 29.876 61.9133 30.2297 61.1737 30.4521C60.4143 30.6935 59.6235 30.8169 58.8279 30.8183C57.7677 30.837 56.7201 30.5835 55.7817 30.0811C54.9019 29.6132 54.1664 28.9069 53.6565 28.0402C53.1535 27.1417 52.8889 26.1254 52.8889 25.0913C52.8889 24.0571 53.1535 23.0408 53.6565 22.1423C54.1673 21.2698 54.9086 20.561 55.7961 20.0966C56.7452 19.5953 57.8019 19.342 58.8711 19.3593C59.7591 19.3485 60.6408 19.5143 61.4663 19.8476C62.2214 20.1592 62.8936 20.6476 63.4284 21.2732L61.8117 22.7917C61.4537 22.3967 61.0179 22.0829 60.5326 21.8709C60.0474 21.6589 59.5238 21.5534 58.9958 21.5613C58.3531 21.5478 57.7176 21.7007 57.1489 22.0056C56.6154 22.2836 56.1723 22.7125 55.8728 23.2408C55.5759 23.8091 55.4206 24.4428 55.4206 25.0864C55.4206 25.73 55.5759 26.3637 55.8728 26.9319C56.1665 27.4612 56.6003 27.896 57.1249 28.1867C57.6852 28.4965 58.315 28.653 58.9526 28.6408C59.6347 28.6452 60.3071 28.4774 60.9099 28.1525L60.9243 24.9155ZM68.8732 22.3083C69.4145 22.0884 69.9935 21.9805 70.5762 21.991V24.2661C70.3076 24.2661 70.1253 24.2369 70.0341 24.2369C69.7372 24.2189 69.4398 24.262 69.1596 24.3634C68.8794 24.4649 68.6221 24.6228 68.4031 24.8276C68.1905 25.0681 68.0281 25.3501 67.9258 25.6565C67.8236 25.9628 67.7836 26.2871 67.8082 26.6097V30.6279H65.4096V22.1179H67.7267V23.2408C68.0166 22.8279 68.4135 22.505 68.8732 22.3083ZM73.5553 30.1934C72.877 29.8393 72.3089 29.3 71.9146 28.6359C71.5281 27.9466 71.3247 27.1666 71.3247 26.3729C71.3247 25.5792 71.5281 24.7992 71.9146 24.1099C72.3068 23.4404 72.8751 22.8959 73.5553 22.5378C74.2908 22.1683 75.1001 21.9762 75.9203 21.9762C76.7405 21.9762 77.5498 22.1683 78.2853 22.5378C78.96 22.8936 79.5245 23.4327 79.9164 24.0953C80.3062 24.7835 80.5114 25.5639 80.5114 26.3583C80.5114 27.1526 80.3062 27.9331 79.9164 28.6212C79.5245 29.2838 78.96 29.823 78.2853 30.1787C77.5498 30.5482 76.7405 30.7403 75.9203 30.7403C75.1001 30.7403 74.2908 30.5482 73.5553 30.1787V30.1934ZM77.4602 28.0891C77.8442 27.6053 78.0536 27.0021 78.0536 26.3802C78.0536 25.7583 77.8442 25.1552 77.4602 24.6714C77.2664 24.4544 77.029 24.2824 76.7641 24.167C76.4993 24.0516 76.2131 23.9955 75.9251 24.0025C75.6386 23.9927 75.3534 24.0446 75.088 24.1548C74.8226 24.265 74.5831 24.4311 74.3852 24.6421C73.9979 25.1243 73.7862 25.7281 73.7862 26.3509C73.7862 26.9738 73.9979 27.5775 74.3852 28.0598C74.5837 28.2701 74.8232 28.4356 75.0885 28.5458C75.3537 28.656 75.6388 28.7083 75.9251 28.6994C76.2087 28.7126 76.4918 28.6651 76.7563 28.56C77.0207 28.4548 77.2605 28.2944 77.4602 28.0891ZM95.325 22.1179L92.2979 30.6279H89.9665L88.086 25.3452L86.1383 30.6279H83.8069L80.7943 22.1179H83.0777L85.0542 27.8742L87.1026 22.1179H89.1558L91.1466 27.8742L93.1806 22.1179H95.325ZM102.089 30.2178C101.824 30.4068 101.526 30.5427 101.211 30.6182C100.852 30.7115 100.483 30.7574 100.113 30.7549C99.2738 30.8087 98.4471 30.5306 97.8051 29.9786C97.5197 29.679 97.2995 29.3215 97.159 28.9295C97.0185 28.5374 96.9608 28.1196 96.9896 27.7034V24.2076H95.6896V22.3083H96.98V20.2333H99.4074V22.3083H101.489V24.2076H99.4074V27.6692C99.3864 27.971 99.4829 28.2692 99.676 28.4992C99.7772 28.6007 99.8983 28.6792 100.031 28.7297C100.165 28.7802 100.307 28.8015 100.448 28.7921C100.794 28.799 101.132 28.6872 101.408 28.4748L102.089 30.2178ZM111.041 22.9381C111.68 23.5728 112 24.5119 112 25.7553V30.6377H109.601V26.1459C109.641 25.6042 109.486 25.0663 109.165 24.6323C109.002 24.4624 108.805 24.3307 108.587 24.2464C108.369 24.1621 108.136 24.1272 107.903 24.1441C107.637 24.1339 107.371 24.1803 107.124 24.2803C106.876 24.3803 106.651 24.5318 106.464 24.7251C106.259 24.9579 106.102 25.2296 106.001 25.5245C105.899 25.8194 105.856 26.1318 105.874 26.4437V30.6523H103.475V18.9346H105.874V23.026C106.205 22.6934 106.603 22.437 107.04 22.2741C107.518 22.0985 108.023 22.0109 108.532 22.0154C108.989 21.9927 109.446 22.0627 109.877 22.221C110.308 22.3794 110.703 22.6232 111.041 22.9381ZM54.7167 47.438C54.0541 47.2354 53.4411 46.8927 52.9177 46.4322L53.4934 45.197C53.9607 45.6076 54.5015 45.9226 55.0861 46.1246C55.7278 46.3596 56.4045 46.4801 57.0865 46.4811C57.7923 46.5247 58.495 46.3548 59.1061 45.9928C59.3111 45.8602 59.4797 45.6769 59.5963 45.46C59.7129 45.2432 59.7736 44.9999 59.7729 44.7527C59.7796 44.5807 59.7506 44.4092 59.6877 44.2493C59.6249 44.0895 59.5297 43.9449 59.4083 43.825C59.1511 43.5772 58.8431 43.3905 58.5065 43.2782C58.1515 43.1513 57.643 43.0097 56.9906 42.8534C56.318 42.6974 55.6562 42.4968 55.0093 42.2529C54.5118 42.0544 54.069 41.7361 53.7189 41.3252C53.3388 40.8464 53.1473 40.2408 53.1816 39.6262C53.1805 39.0571 53.3477 38.5008 53.6613 38.0296C54.0073 37.5216 54.4905 37.1264 55.0525 36.892C55.7862 36.5834 56.576 36.4369 57.3695 36.4624C58.0094 36.4614 58.6466 36.5468 59.2644 36.7163C59.8368 36.8599 60.3793 37.1063 60.8667 37.4437L60.3534 38.7083C59.8985 38.4161 59.4061 38.1894 58.8902 38.0345C58.3964 37.8861 57.8845 37.8089 57.3695 37.805C56.6754 37.7549 55.983 37.9255 55.3883 38.2933C55.183 38.431 55.0148 38.6189 54.8992 38.8398C54.7836 39.0607 54.7241 39.3075 54.7263 39.5578C54.7202 39.7306 54.7505 39.9028 54.815 40.0627C54.8795 40.2227 54.9769 40.3668 55.1005 40.4855C55.3685 40.7323 55.6837 40.9201 56.0263 41.0372C56.5171 41.2057 57.0168 41.3459 57.523 41.4571C58.1882 41.6157 58.8421 41.8196 59.4803 42.0674C59.9724 42.2663 60.4113 42.5808 60.7612 42.9853C61.1383 43.4505 61.33 44.043 61.2984 44.6453C61.2974 45.2125 61.1304 45.7666 60.8187 46.2369C60.4595 46.7521 59.9589 47.1478 59.3796 47.3745C58.6385 47.674 57.8452 47.8169 57.0481 47.7944C56.2573 47.8031 55.4701 47.6827 54.7167 47.438ZM66.23 47.2378C65.5863 46.8817 65.0505 46.3532 64.6805 45.7096C64.319 45.0358 64.1295 44.2803 64.1295 43.5126C64.1295 42.7448 64.319 41.9893 64.6805 41.3155C65.0509 40.6747 65.5868 40.1495 66.23 39.7971C66.9217 39.4272 67.6938 39.2409 68.4751 39.2551C69.1669 39.242 69.8516 39.3995 70.4707 39.7141C71.0458 40.0071 71.5206 40.4699 71.8331 41.0421L70.6961 41.7842C70.4593 41.403 70.1285 41.0916 69.7367 40.8809C69.3427 40.6789 68.9066 40.5768 68.4655 40.5831C67.9634 40.5776 67.4682 40.7019 67.0263 40.9444C66.5995 41.1851 66.2486 41.544 66.0141 41.9795C65.7645 42.4534 65.639 42.9847 65.6495 43.5223C65.6374 44.0663 65.763 44.6043 66.0141 45.0847C66.2486 45.5202 66.5995 45.8791 67.0263 46.1198C67.4674 46.3645 67.9631 46.489 68.4655 46.4811C68.9066 46.4874 69.3427 46.3853 69.7367 46.1832C70.1285 45.9726 70.4593 45.6612 70.6961 45.28L71.8523 45.9733C71.5376 46.5461 71.0636 47.0115 70.4899 47.3111C69.874 47.6379 69.1887 47.8055 68.4942 47.7993C67.7091 47.8061 66.9357 47.606 66.2492 47.2183L66.23 47.2378ZM82.0991 40.1584C82.4258 40.5236 82.6762 40.9525 82.8354 41.4191C82.9945 41.8857 83.059 42.3803 83.025 42.873V47.6968H81.533V43.0439C81.5818 42.3807 81.3754 41.7241 80.9574 41.213C80.7405 40.9975 80.4814 40.8309 80.1971 40.7241C79.9128 40.6173 79.6096 40.5726 79.3071 40.5929C78.9556 40.5721 78.6037 40.6256 78.2734 40.7499C77.9432 40.8743 77.6418 41.0668 77.3882 41.3155C77.1424 41.594 76.9538 41.9198 76.8335 42.2736C76.7132 42.6275 76.6637 43.0022 76.6879 43.3759V47.6968H75.1959V35.979H76.6879V40.5197C77.0159 40.0913 77.4472 39.7566 77.9399 39.5481C78.4739 39.3189 79.0491 39.2058 79.6285 39.2161C80.083 39.1933 80.5374 39.2632 80.9649 39.4217C81.3925 39.5802 81.7846 39.824 82.1183 40.1388L82.0991 40.1584ZM88.7144 47.2378C88.0738 46.8826 87.5425 46.3536 87.1793 45.7096C86.8208 45.0348 86.633 44.2797 86.633 43.5126C86.633 42.7454 86.8208 41.9903 87.1793 41.3155C87.5429 40.6743 88.0744 40.1486 88.7144 39.7971C89.3951 39.4391 90.1502 39.2524 90.9163 39.2524C91.6825 39.2524 92.4376 39.4391 93.1183 39.7971C93.7536 40.1517 94.2812 40.6769 94.6438 41.3155C95.0023 41.9903 95.1901 42.7454 95.1901 43.5126C95.1901 44.2797 95.0023 45.0348 94.6438 45.7096C94.2817 46.3511 93.7541 46.8795 93.1183 47.2378C92.4389 47.6001 91.6833 47.7894 90.9163 47.7894C90.1494 47.7894 89.3938 47.6001 88.7144 47.2378ZM92.3411 46.0905C92.7605 45.8437 93.103 45.4816 93.3293 45.0456C93.5627 44.566 93.6842 44.038 93.6842 43.5028C93.6842 42.9676 93.5627 42.4396 93.3293 41.96C93.1026 41.5269 92.76 41.168 92.3411 40.9249C91.9032 40.6877 91.4148 40.5636 90.9187 40.5636C90.4227 40.5636 89.9342 40.6877 89.4964 40.9249C89.0783 41.1706 88.7347 41.5287 88.5034 41.96C88.2637 42.4377 88.1388 42.9664 88.1388 43.5028C88.1388 44.0392 88.2637 44.5679 88.5034 45.0456C88.7343 45.4798 89.0777 45.8411 89.4964 46.0905C89.9322 46.3341 90.4215 46.4618 90.9187 46.4618C91.416 46.4618 91.9052 46.3341 92.3411 46.0905ZM100.137 47.2378C99.4973 46.8825 98.9675 46.3534 98.6063 45.7096C98.2477 45.0348 98.0599 44.2797 98.0599 43.5126C98.0599 42.7454 98.2477 41.9903 98.6063 41.3155C98.9681 40.6747 99.4979 40.1489 100.137 39.7971C100.819 39.441 101.574 39.2554 102.341 39.2554C103.107 39.2554 103.863 39.441 104.545 39.7971C105.179 40.152 105.705 40.6772 106.066 41.3155C106.424 41.9903 106.612 42.7454 106.612 43.5126C106.612 44.2797 106.424 45.0348 106.066 45.7096C105.705 46.3507 105.18 46.8792 104.545 47.2378C103.865 47.6001 103.109 47.7894 102.341 47.7894C101.573 47.7894 100.817 47.6001 100.137 47.2378ZM103.768 46.0905C104.186 45.8434 104.527 45.4812 104.751 45.0456C104.989 44.5673 105.113 44.0388 105.113 43.5028C105.113 42.9668 104.989 42.4383 104.751 41.96C104.526 41.5272 104.185 41.1683 103.768 40.9249C103.328 40.6787 102.831 40.5541 102.329 40.5636C101.826 40.5527 101.33 40.6774 100.89 40.9249C100.469 41.169 100.124 41.5274 99.8919 41.96C99.6523 42.4377 99.5273 42.9664 99.5273 43.5028C99.5273 44.0392 99.6523 44.5679 99.8919 45.0456C100.147 45.4845 100.52 45.8401 100.966 46.0709C101.404 46.3262 101.902 46.4545 102.406 46.442C102.89 46.4426 103.366 46.3147 103.787 46.0709L103.768 46.0905ZM110.239 35.9595H111.731V47.6772H110.239V35.9595Z" fill="#030A21"/>
</svg>
