<svg width="233" height="71" viewBox="0 0 233 71" fill="none" xmlns="http://www.w3.org/2000/svg">
<g clip-path="url(#clip0_825_16390)">
<path fill-rule="evenodd" clip-rule="evenodd" d="M86.4788 23.6628C86.5464 24.2503 86.5997 24.8396 86.6851 25.4253C87.7697 32.8892 96.2903 34.1406 100.565 30.7166C103.273 28.5476 103.972 25.6188 103.623 22.3351C103.015 16.6054 97.743 13.6731 92.5332 15.125C88.7583 16.1758 86.5339 19.3868 86.4788 23.6628ZM107.75 23.6184C107.814 29.6907 104.295 34.3855 98.5983 35.8393C93.0435 37.2557 87.2878 35.2535 84.4269 30.8764C81.0485 25.704 81.7029 16.9941 87.8088 13.1228C94.0321 9.17521 103.319 10.8916 106.577 17.9437C107.41 19.7471 107.757 21.6464 107.75 23.6184ZM123.573 25.9099C123.396 26.2791 123.266 26.5205 123.159 26.7743C121.927 29.6836 120.673 32.5839 119.484 35.5127C119.208 36.1943 118.797 36.2688 118.195 36.2883C117.602 36.3061 117.382 36.0274 117.185 35.5073C115.197 30.2977 113.184 25.097 111.185 19.8927C111.096 19.6584 111.043 19.4081 110.92 18.975C112.265 18.975 113.497 18.9519 114.726 19.0052C114.886 19.0123 115.081 19.4028 115.167 19.6495C116.217 22.6652 117.252 25.6845 118.291 28.7055L118.628 29.6605C118.819 29.2309 118.938 28.9824 119.037 28.7268C120.156 25.8283 121.296 22.9403 122.362 20.024C122.606 19.3637 122.985 19.3282 123.513 19.3477C124.03 19.3655 124.491 19.2714 124.758 20.0045C125.798 22.8676 126.92 25.7022 128.015 28.544C128.143 28.8813 128.287 29.2114 128.525 29.7865C129.105 28.0594 129.597 26.5684 130.104 25.0828C130.727 23.2581 131.374 21.444 131.987 19.6158C132.147 19.1365 132.386 18.92 132.891 18.9342C133.972 18.9643 135.054 18.943 136.272 18.943C136.155 19.369 136.1 19.6655 135.993 19.9406C133.998 25.12 131.993 30.2942 130.001 35.4718C129.814 35.9635 129.626 36.3292 129.005 36.2848C128.435 36.244 127.988 36.2635 127.698 35.5464C126.532 32.6709 125.286 29.8291 124.066 26.9749C123.933 26.6643 123.783 26.3625 123.573 25.9099ZM83.9824 39.462C85.3942 39.462 86.6566 39.423 87.9137 39.4975C88.1449 39.51 88.4383 39.9413 88.5538 40.243C90.6395 45.6781 92.7003 51.1238 94.7683 56.5659C94.8661 56.8198 94.971 57.0718 95.1666 57.5617C95.6786 56.1293 96.0929 54.917 96.5428 53.7206C98.2444 49.1855 99.9638 44.6592 101.655 40.1223C101.847 39.6023 102.11 39.4265 102.642 39.4478C103.762 39.4887 104.884 39.4603 106.166 39.4603C106.07 39.8934 106.04 40.2555 105.908 40.5732C102.702 48.353 99.482 56.1275 96.2832 63.9109C96.0556 64.4629 95.7853 64.7043 95.1754 64.6883C94.5709 64.6741 94.2348 64.5339 93.9752 63.9055C90.7569 56.1311 87.503 48.3708 84.2686 40.6034C84.1353 40.2785 84.0944 39.9147 83.9841 39.462H83.9824ZM201.8 53.9478C201.866 53.9798 201.936 54.0472 202.007 54.0472C204.768 54.0596 207.531 54.065 210.293 54.0738C210.828 54.0738 210.84 53.7188 210.773 53.3265C210.57 52.1551 209.971 51.2747 208.934 50.7066C207.821 50.0943 206.621 50.0322 205.421 50.2097C203.413 50.5025 201.959 52.0485 201.8 53.9478ZM213.883 56.6742H201.665C201.647 58.5948 202.457 59.9225 203.97 60.8153C205.44 61.685 207.076 61.7028 208.685 61.5341C210.085 61.3868 211.461 61.0283 212.894 60.7549C212.947 61.0585 213.015 61.4685 213.09 61.8767C213.404 63.6038 213.498 63.2559 211.934 63.8079C209.242 64.7611 206.489 65.0398 203.723 64.1487C200.085 62.9754 197.912 59.6491 198.081 55.753C198.184 53.3745 198.762 51.2338 200.517 49.5529C201.932 48.195 203.635 47.5063 205.549 47.375C207.227 47.2614 208.886 47.3395 210.447 48.1134C212.569 49.166 213.63 50.9622 213.863 53.2822C213.97 54.3525 213.881 55.4441 213.881 56.6724L213.883 56.6742ZM109.878 53.9798H118.796C118.929 51.8728 117.391 50.27 115.159 50.1156C112.231 49.9114 110.11 51.4326 109.878 53.9798ZM120.956 60.6715C121.082 61.3407 121.258 62.017 121.312 62.7039C121.333 62.9453 121.116 63.3606 120.912 63.4476C117.75 64.7433 114.51 65.2137 111.249 63.9322C107.387 62.4163 106.068 58.9533 106.173 55.4512C106.196 54.6472 106.338 53.8289 106.546 53.0514C107.414 49.7943 110.264 47.4371 113.582 47.3448C114.934 47.3058 116.351 47.3572 117.631 47.7424C121.24 48.8269 122.27 52.148 121.961 55.4636C121.873 56.392 121.539 56.6352 120.647 56.6174C117.336 56.5588 114.021 56.5926 110.709 56.5979C109.624 56.5979 109.615 56.6156 109.827 57.6682C110.245 59.752 111.859 61.2005 113.995 61.4809C116.145 61.7666 118.332 61.5266 120.369 60.7816C120.497 60.7354 120.625 60.6857 120.757 60.6484C120.805 60.636 120.864 60.6591 120.956 60.6715ZM130.428 49.9754C131.297 48.6654 132.428 47.7264 133.897 47.5472C135.293 47.3768 136.769 47.2632 138.129 47.5418C140.664 48.0601 142.46 50.4227 142.549 53.2982C142.663 56.999 142.585 60.707 142.585 64.4096C142.585 64.4895 142.537 64.5694 142.498 64.6883H138.932V63.6837C138.932 60.6733 138.947 57.6629 138.931 54.6525C138.92 52.6219 137.928 51.0741 136.322 50.5043C133.858 49.6274 131.196 51.2178 130.787 53.875C130.634 54.8672 130.636 55.8897 130.627 56.8979C130.607 59.4698 130.622 62.04 130.622 64.6724H126.953V63.7209V52.952C126.953 52.6325 126.953 52.3148 126.945 51.9971C126.9 50.428 126.737 50.2203 125.195 49.8564C125.195 49.2583 125.152 48.6246 125.218 48.0033C125.239 47.801 125.508 47.5312 125.716 47.462C126.054 47.3519 126.436 47.3714 126.801 47.3519C129.082 47.2277 129.768 47.7105 130.428 49.9754ZM180.638 62.0471V62.8672C180.652 64.6191 180.652 64.6191 178.863 64.683C177.012 64.7505 175.954 64.1896 175.607 62.9364C175.518 62.6116 175.483 62.269 175.403 61.8128C175.246 61.9548 175.158 62.0028 175.113 62.0791C173.419 64.9368 168.516 65.2279 166.134 63.8558C164.485 62.9062 163.731 61.3584 163.41 59.5674C163.259 58.7243 163.228 57.851 163.223 56.9901C163.202 53.7934 163.214 50.5948 163.214 47.3342H166.9C166.914 47.6661 166.939 47.9749 166.939 48.2838C166.943 51.1682 166.93 54.0525 166.952 56.9387C166.955 57.5404 167.019 58.151 167.151 58.7368C167.526 60.4088 168.753 61.488 170.364 61.6353C172.113 61.7951 173.877 60.8384 174.558 59.2355C174.843 58.5664 175.019 57.7978 175.031 57.0718C175.085 54.1608 175.053 51.2445 175.053 48.3299V47.3342H178.781V48.3654L178.783 59.445C178.783 59.7627 178.779 60.0822 178.819 60.3946C178.988 61.7596 179.165 61.9264 180.639 62.0471H180.638ZM217.36 59.5391H220.988C221.551 61.2892 223.21 62.2903 226.126 61.9122C227.058 61.7798 227.934 61.3928 228.658 60.794C229.789 59.8177 229.45 58.2468 228.011 57.7623C226.711 57.3256 225.298 57.2067 223.941 56.9192C222.697 56.6547 221.409 56.4825 220.234 56.0423C216.912 54.8034 217.3 51.1966 218.845 49.5919C220.076 48.3139 221.658 47.7388 223.401 47.533C225.662 47.2667 227.89 47.3963 229.935 48.4737C231.427 49.2583 232.38 50.4138 232.355 52.2864C231.336 52.2864 230.358 52.2971 229.382 52.274C229.249 52.2704 229.039 52.1178 229.003 51.9971C228.673 50.8824 227.723 50.5292 226.708 50.3179C225.41 50.0481 224.103 50.0464 222.862 50.5948C221.845 51.0457 221.413 51.7006 221.48 52.6059C221.555 53.6159 222.327 53.9638 223.178 54.1253C224.887 54.4484 226.612 54.6862 228.328 54.9773C228.783 55.0572 229.235 55.1832 229.67 55.3323C231.249 55.879 232.433 56.8251 232.675 58.4954C232.947 60.3733 232.501 62.0436 230.785 63.2239C229.124 64.3653 227.216 64.6724 225.241 64.6724C223.456 64.6724 221.692 64.5108 220.079 63.6659C218.39 62.782 217.488 61.4347 217.36 59.5391ZM159.368 47.7335V50.3392H155.454C153.163 50.3392 153.15 50.3392 153.166 52.4657C153.184 54.585 153.074 56.7168 153.299 58.8184C153.573 61.362 155.17 62.285 157.855 61.7329C158.427 61.614 158.993 61.4543 159.651 61.2927L160.042 63.9748C157.99 64.6315 155.917 64.9031 153.82 64.4984C151.267 64.0032 149.592 62.0525 149.482 59.4326C149.375 56.8144 149.414 54.1892 149.384 51.5675C149.379 51.1841 149.345 50.8007 149.322 50.3783L145.78 50.1031V47.7335C146.731 47.7335 147.672 47.698 148.607 47.746C149.249 47.7797 149.43 47.5134 149.453 46.9738C149.507 45.8041 149.605 44.6362 149.667 43.4682C149.702 42.87 149.942 42.6056 150.648 42.602C153.163 42.5896 153.163 42.563 153.163 44.874C153.163 45.5166 153.209 46.1627 153.15 46.7999C153.086 47.5152 153.312 47.7815 154.128 47.7531C155.84 47.6927 157.556 47.7353 159.368 47.7353V47.7335ZM147.355 31.7532C147.355 32.6176 147.391 33.4128 147.327 34.2027C147.313 34.3678 146.936 34.634 146.717 34.6429C145.543 34.6837 144.352 34.7796 143.2 34.6305C141.265 34.382 140.058 33.1058 139.665 31.0947C139.529 30.4137 139.457 29.7213 139.452 29.0268C139.437 22.7753 139.445 16.5219 139.445 10.2704V9.46631H143.362V10.4568C143.362 16.4598 143.362 22.4611 143.365 28.4641C143.365 28.9079 143.374 29.357 143.459 29.7901C143.788 31.4763 144.731 32.0763 146.601 31.8349C146.772 31.8118 146.945 31.7976 147.355 31.7532ZM182.329 50.1174C182.298 49.5139 182.284 48.8944 182.229 48.2785C182.177 47.6874 182.624 47.659 183.006 47.5933C185.35 47.1851 186.681 47.8738 187.714 50.0659C188.552 48.5358 189.884 47.6945 191.537 47.4389C193.026 47.2099 194.508 47.3253 195.89 48.0548C196.384 48.3157 196.63 48.5642 196.399 49.1677C196.098 49.9558 195.908 50.783 195.712 51.4539C194.546 51.2001 193.45 50.7972 192.341 50.7528C189.628 50.6463 187.873 52.4 187.85 55.1051C187.825 57.9646 187.821 60.8277 187.862 63.689C187.873 64.4611 187.649 64.7451 186.847 64.6794C185.995 64.612 185.134 64.6652 184.194 64.6652C184.167 64.2357 184.123 63.8789 184.123 63.5239C184.121 59.8958 184.123 56.2695 184.124 52.6432V52.3041C184.082 50.6587 183.939 50.483 182.329 50.1174Z" fill="white"/>
<path fill-rule="evenodd" clip-rule="evenodd" d="M35.8102 29.978C31.0911 29.978 26.9375 32.818 26.9375 38.6542C26.9375 44.0005 31.0911 47.334 35.8102 47.334C40.5292 47.334 44.3663 43.4396 44.3663 38.6542C44.3663 33.8706 40.5292 29.978 35.8102 29.978Z" fill="#0096D4"/>
<path fill-rule="evenodd" clip-rule="evenodd" d="M0 3.30151V66.953C0 69.1895 1.81899 71 4.06471 71H67.2403C67.7733 71.0007 68.3014 70.8966 68.7941 70.6936C69.2869 70.4906 69.7348 70.1927 70.1122 69.8169C70.4897 69.4411 70.7893 68.9947 70.9939 68.5034C71.1986 68.012 71.3043 67.4852 71.305 66.953V4.04701C71.305 1.81051 69.486 6.21839e-06 67.2403 6.21839e-06H4.07183C3.53789 -0.000926888 3.009 0.103162 2.51538 0.306328C2.02175 0.509493 1.57305 0.807753 1.19493 1.18407C0.816799 1.56039 0.516647 2.00738 0.311618 2.49953C0.106589 2.99168 0.000699886 3.51932 0 4.05233L0 3.30151ZM53.3658 62.4676C53.0956 62.8652 52.082 62.8279 51.9842 62.2528C51.0152 56.5249 49.7563 50.0071 47.5248 44.7655C45.8338 50.4579 40.9281 54.2085 34.4736 54.2085C26.8563 54.2085 20.2311 48.2427 20.2311 40.0351C20.2311 31.5293 26.8989 25.9683 34.5145 25.9683C35.7681 25.9683 36.7371 26.5771 37.6457 27.0226C33.2787 22.2408 28.6628 19.9013 22.74 20.2066C15.2365 20.5953 11.3869 25.718 9.29763 29.3976C9.0167 29.8963 8.76598 29.907 8.24856 29.6816L5.35561 28.1338C4.94309 27.8959 4.79907 27.5658 5.08534 26.9658C8.197 20.4072 14.6692 15.1514 23.533 15.2579C45.2079 15.5206 53.4672 45.3459 54.4593 48.6048C58.7197 38.9453 60.0337 27.6208 56.529 16.7116C56.2943 15.9786 56.5344 15.5863 57.3559 15.3626L59.1873 14.7946C60.0052 14.5941 60.4764 14.3349 60.8551 15.439C67.7043 35.3101 59.4184 53.6228 53.3658 62.4676Z" fill="#0096D4"/>
</g>
<defs>
<clipPath id="clip0_825_16390">
<rect width="232.93" height="71" fill="white"/>
</clipPath>
</defs>
</svg>
