<svg width="48" height="32" viewBox="0 0 48 32" fill="none" xmlns="http://www.w3.org/2000/svg">
<path d="M9.04348 32C5.8744 32 3.55556 31.2889 2.08696 29.8667C0.695652 28.3696 0 26.5357 0 24.3649V22.2316C0 20.2105 0.309179 18.1895 0.927536 16.1684C1.54589 14.0725 2.35749 12.0515 3.36232 10.1053C4.44444 8.15906 5.71981 6.32514 7.18841 4.6035C8.65701 2.88187 10.2415 1.34736 11.942 0H21.913C19.4396 2.32046 17.3527 4.60351 15.6522 6.84912C13.9517 9.09473 12.6763 11.6023 11.8261 14.3719C14.0676 14.8211 15.6908 15.7567 16.6957 17.1789C17.7005 18.5263 18.2029 20.0982 18.2029 21.8947V24.3649C18.2029 26.5357 17.4686 28.3696 16 29.8667C14.6087 31.2889 12.2899 32 9.04348 32ZM35.1304 32C31.9614 32 29.6425 31.2889 28.1739 29.8667C26.7826 28.3696 26.087 26.5357 26.087 24.3649V22.2316C26.087 20.2105 26.3961 18.1895 27.0145 16.1684C27.6328 14.0725 28.4444 12.0515 29.4493 10.1053C30.5314 8.15906 31.8068 6.32514 33.2754 4.6035C34.744 2.88187 36.3285 1.34736 38.029 0H48C45.5266 2.32046 43.4396 4.60351 41.7391 6.84912C40.0386 9.09473 38.7633 11.6023 37.913 14.3719C40.1546 14.8211 41.7778 15.7567 42.7826 17.1789C43.7874 18.5263 44.2899 20.0982 44.2899 21.8947V24.3649C44.2899 26.5357 43.5556 28.3696 42.087 29.8667C40.6957 31.2889 38.3768 32 35.1304 32Z" fill="#E2E2E3"/>
</svg>
