<svg width="122" height="24" viewBox="0 0 122 24" fill="none" xmlns="http://www.w3.org/2000/svg">
<path d="M7.71079 23.6301H3.12436V11.9821H0V8.18971H3.12425V5.49119C3.12425 2.29342 4.5061 0 9.08012 0C10.0475 0 11.5663 0.198651 11.5663 0.198651V3.72006H9.97111C8.3457 3.72006 7.71102 4.22376 7.71102 5.61631V8.18971H11.5054L11.1676 11.9821H7.71091L7.71079 23.6301ZM18.2345 7.88669C18.1677 7.88669 18.0989 7.88914 18.0309 7.89086C13.7781 7.89086 11.8323 11.1499 11.8323 15.7762C11.8323 21.6041 14.3562 23.9365 18.0641 23.9365C20.1855 23.9365 21.5793 23.0269 22.4265 21.3293V23.6317H26.7888V8.19131H22.4265V10.5658C21.7347 9.03817 20.302 7.90474 18.2345 7.88669ZM19.3437 11.5352C21.1299 11.5352 22.202 12.8045 22.202 14.9635L22.2061 17.1686C22.2061 18.6238 21.3207 20.3262 19.3437 20.3262C16.3044 20.3262 16.3856 16.9829 16.3856 15.8693C16.3856 12.1235 18.005 11.5352 19.3437 11.5352ZM28.5505 15.9123C28.5505 14.0361 28.4624 7.89669 36.3137 7.89669C39.4653 7.89669 40.7813 8.9176 40.7813 8.9176L39.7236 12.2598C39.7236 12.2598 38.4093 11.5225 36.6967 11.5225C34.5032 11.5225 33.1036 12.818 33.1036 15.0973L33.1061 16.7316C33.1061 18.9217 34.4565 20.3837 36.7013 20.3837C38.2614 20.3837 39.6994 19.6395 39.6994 19.6395L40.7544 22.9119C40.7544 22.9119 39.5511 23.9393 36.3357 23.9393C28.8601 23.9393 28.5506 18.4311 28.5506 15.9123H28.5505ZM66.3596 7.89086C70.6121 7.89086 72.5889 11.1499 72.5889 15.7762C72.5889 21.6041 70.0645 23.9365 66.3568 23.9365C64.2355 23.9365 62.667 23.027 61.8203 21.3293V23.6317L57.5126 23.63V0.469472L62.0862 0.0631171V10.3567C62.7462 8.55577 64.9152 7.89086 66.3596 7.89086ZM65.0772 11.5352C63.291 11.5352 62.0862 12.8045 62.0862 14.9635L62.0817 17.1686C62.0789 18.6238 62.916 20.3262 65.0772 20.3262C68.1165 20.3262 68.0355 16.9829 68.0355 15.8693C68.0355 12.1235 66.4164 11.5352 65.0772 11.5352ZM48.7166 7.90366C43.8929 7.90366 41.3463 10.583 41.3463 15.3444V16.229C41.3463 22.4089 44.9225 24 49.186 24C53.3301 24 55.206 22.8191 55.206 22.8191L54.3502 19.6745C54.3502 19.6745 52.1436 20.6309 49.7343 20.6309C47.2367 20.6309 46.1626 19.9823 45.8872 17.537H55.5716V15.0142C55.5716 9.84926 52.7135 7.90354 48.7165 7.90354L48.7166 7.90366ZM48.8328 11.0526C50.5025 11.0526 51.5845 12.0957 51.5251 14.5148H45.8956C45.9933 11.9687 47.16 11.0527 48.8328 11.0527V11.0526ZM81.708 7.88246C76.7543 7.88246 74.1468 10.7263 74.1468 15.8227C74.1468 22.8151 78.6417 23.9407 81.7164 23.9407C86.2169 23.9407 89.2112 21.4722 89.2112 15.8862C89.2112 10.0721 85.8441 7.88246 81.708 7.88246ZM81.6455 11.5478C83.8236 11.5478 84.6871 13.2086 84.6871 15.099V16.7243C84.6871 19.0143 83.4789 20.339 81.6371 20.339C79.9151 20.339 78.7041 19.0999 78.7041 16.7243V15.099C78.7041 12.5654 80.145 11.5478 81.6455 11.5478ZM98.3219 7.88246C93.3688 7.88246 90.7607 10.7263 90.7607 15.8227C90.7607 22.8151 95.2561 23.9407 98.3303 23.9407C102.831 23.9407 105.825 21.4722 105.825 15.8862C105.825 10.0721 102.459 7.88246 98.3219 7.88246ZM98.26 11.5478C100.438 11.5478 101.301 13.2086 101.301 15.099V16.7243C101.301 19.0143 100.093 20.339 98.2516 20.339C96.529 20.339 95.3185 19.0999 95.3185 16.7243V15.099C95.3185 12.5654 96.7589 11.5478 98.26 11.5478ZM107.553 23.6301V0.469472L112.14 0.0631171V15.5868L116.691 8.18971H121.534L116.788 15.851L121.717 23.6301H116.86L112.14 16.0766V23.6301H107.553Z" fill="white"/>
</svg>
