<svg width="86" height="26" viewBox="0 0 86 26" fill="none" xmlns="http://www.w3.org/2000/svg">
<path fill-rule="evenodd" clip-rule="evenodd" d="M53.2309 19.9598C48.2928 23.5876 41.1353 25.5232 34.9728 25.5232C26.332 25.5232 18.5531 22.3378 12.6681 17.0399C12.2057 16.6233 12.62 16.0555 13.1748 16.38C19.5259 20.0631 27.3788 22.2788 35.4907 22.2788C40.9614 22.2788 46.9796 21.1507 52.5133 18.8096C53.3492 18.4556 54.0483 19.3552 53.2309 19.9598Z" fill="white"/>
<path fill-rule="evenodd" clip-rule="evenodd" d="M55.2905 17.619C54.6617 16.8153 51.1181 17.2392 49.5275 17.4273C49.0429 17.4863 48.969 17.066 49.4054 16.7636C52.2277 14.7839 56.8588 15.3553 57.3989 16.0189C57.9389 16.6862 57.2583 21.3131 54.6062 23.5215C54.1993 23.8607 53.8109 23.68 53.9921 23.2302C54.5877 21.7482 55.923 18.4264 55.2905 17.619Z" fill="white"/>
<path fill-rule="evenodd" clip-rule="evenodd" d="M49.6326 2.78761V0.863118C49.6326 0.571863 49.8545 0.376465 50.1208 0.376465H58.7653C59.0427 0.376465 59.2647 0.57555 59.2647 0.863118V2.5111C59.261 2.78761 59.0279 3.14891 58.6137 3.72036L54.1342 10.0948C55.7987 10.0542 57.5558 10.3012 59.0649 11.1492C59.4052 11.3409 59.4977 11.6211 59.5236 11.8976V13.9511C59.5236 14.2313 59.2129 14.5595 58.8874 14.3899C56.2278 12.9999 52.6953 12.8488 49.7546 14.4046C49.455 14.5668 49.1406 14.2424 49.1406 13.9622V12.0119C49.1406 11.6985 49.1443 11.1639 49.4587 10.6883L54.6484 3.27058H50.1319C49.8545 3.27058 49.6326 3.07518 49.6326 2.78761Z" fill="white"/>
<path fill-rule="evenodd" clip-rule="evenodd" d="M18.0997 14.7946H15.4698C15.2182 14.7762 15.0185 14.5882 15 14.3485V0.895512C15 0.626378 15.2256 0.412544 15.5068 0.412544H17.9592C18.2144 0.423597 18.4178 0.619002 18.4363 0.862328V2.62092H18.4844C19.1243 0.921317 20.3265 0.128662 21.9466 0.128662C23.5927 0.128662 24.621 0.921317 25.3608 2.62092C25.997 0.921317 27.4433 0.128662 28.9932 0.128662C30.0955 0.128662 31.3013 0.582134 32.0374 1.59968C32.8697 2.73152 32.6995 4.37581 32.6995 5.81734L32.6958 14.308C32.6958 14.5771 32.4702 14.7946 32.1891 14.7946H29.5628C29.3002 14.7762 29.0893 14.566 29.0893 14.308V7.17776C29.0893 6.60999 29.1411 5.19428 29.0154 4.65601C28.8193 3.75275 28.2312 3.49836 27.4692 3.49836C26.833 3.49836 26.1672 3.92234 25.8971 4.60071C25.6271 5.27907 25.653 6.41459 25.653 7.17776V14.308C25.653 14.5771 25.4274 14.7946 25.1462 14.7946H22.52C22.2537 14.7762 22.0465 14.566 22.0465 14.308L22.0428 7.17776C22.0428 5.67724 22.2907 3.46887 20.4227 3.46887C18.5325 3.46887 18.6065 5.62194 18.6065 7.17776V14.308C18.6065 14.5771 18.3809 14.7946 18.0997 14.7946" fill="white"/>
<path fill-rule="evenodd" clip-rule="evenodd" d="M66.7074 0.128662C70.6098 0.128662 72.7219 3.46887 72.7219 7.71602C72.7219 11.8194 70.3879 15.0748 66.7074 15.0748C62.8753 15.0748 60.7891 11.7346 60.7891 7.57224C60.7891 3.38407 62.9012 0.128662 66.7074 0.128662ZM66.7296 2.8753C64.7913 2.8753 64.6693 5.50765 64.6693 7.14826C64.6693 8.79256 64.6434 12.3024 66.7074 12.3024C68.7455 12.3024 68.8417 9.47092 68.8417 7.74552C68.8417 6.60999 68.7936 5.25327 68.4496 4.17673C68.1537 3.24029 67.5656 2.8753 66.7296 2.8753Z" fill="white"/>
<path fill-rule="evenodd" clip-rule="evenodd" d="M77.7835 14.7946H75.1647C74.902 14.7762 74.6912 14.566 74.6912 14.308L74.6875 0.851268C74.7097 0.604255 74.9279 0.412544 75.1943 0.412544H77.6319C77.8612 0.423597 78.0499 0.578448 78.1016 0.788594V2.84581H78.1497C78.8858 1.00611 79.9178 0.128662 81.734 0.128662C82.914 0.128662 84.0644 0.552641 84.8042 1.71397C85.4922 2.79051 85.4922 4.60071 85.4922 5.90213V14.3706C85.4626 14.6066 85.2443 14.7946 84.9854 14.7946H82.348C82.1076 14.7762 81.9079 14.5992 81.882 14.3706V7.06347C81.882 5.59245 82.0521 3.43938 80.2359 3.43938C79.596 3.43938 79.0079 3.86704 78.7157 4.51591C78.3458 5.33806 78.2977 6.15652 78.2977 7.06347V14.308C78.294 14.5771 78.0646 14.7946 77.7835 14.7946" fill="white"/>
<path fill-rule="evenodd" clip-rule="evenodd" d="M42.7415 8.36896C42.7415 9.39019 42.7674 10.2418 42.2495 11.1488C41.8316 11.8861 41.1658 12.3396 40.4297 12.3396C39.4198 12.3396 38.828 11.5728 38.828 10.4409C38.828 8.20674 40.8365 7.8012 42.7415 7.8012V8.36896ZM45.3937 14.7581C45.2198 14.913 44.9683 14.924 44.7722 14.8208C43.8993 14.0982 43.7402 13.7627 43.2631 13.0733C41.8205 14.5406 40.7959 14.9793 38.9279 14.9793C36.7122 14.9793 34.9922 13.6189 34.9922 10.8944C34.9922 8.76713 36.1463 7.31823 37.796 6.61037C39.2238 5.98362 41.2175 5.87302 42.7415 5.69974V5.36056C42.7415 4.73749 42.7896 4.00014 42.4197 3.46188C42.1016 2.97891 41.4876 2.77982 40.9438 2.77982C39.9414 2.77982 39.0499 3.29228 38.8317 4.35407C38.7873 4.59002 38.6135 4.82229 38.373 4.83335L35.8245 4.56053C35.6099 4.5126 35.3695 4.33932 35.4324 4.0112C36.0168 0.929067 38.8132 0 41.3137 0C42.5935 0 44.2655 0.339183 45.2753 1.30512C46.5551 2.49594 46.4331 4.08494 46.4331 5.81403V9.89897C46.4331 11.1267 46.9435 11.6649 47.4244 12.3285C47.5908 12.5645 47.6278 12.8484 47.4133 13.0253C46.8769 13.4714 45.9226 14.301 45.3974 14.7655L45.3937 14.7581" fill="white"/>
<path fill-rule="evenodd" clip-rule="evenodd" d="M8.26494 8.36896C8.26494 9.39019 8.29083 10.2418 7.77298 11.1488C7.355 11.8861 6.69288 12.3396 5.95309 12.3396C4.94328 12.3396 4.35514 11.5728 4.35514 10.4409C4.35514 8.20674 6.36368 7.8012 8.26494 7.8012V8.36896ZM10.9171 14.7581C10.7432 14.913 10.4917 14.924 10.2957 14.8208C9.42272 14.0982 9.26736 13.7627 8.7865 13.0733C7.3439 14.5406 6.32299 14.9793 4.45132 14.9793C2.23934 14.9793 0.515625 13.6189 0.515625 10.8944C0.515625 8.76713 1.6734 7.31823 3.31943 6.61037C4.74723 5.98362 6.74097 5.87302 8.26494 5.69974V5.36056C8.26494 4.73749 8.31303 4.00014 7.94683 3.46188C7.62502 2.97891 7.011 2.77982 6.47095 2.77982C5.46853 2.77982 4.57338 3.29228 4.35514 4.35407C4.31076 4.59002 4.1369 4.82229 3.90017 4.83335L1.34789 4.56053C1.13335 4.5126 0.896617 4.33932 0.9558 4.0112C1.54394 0.929067 4.33665 0 6.83715 0C8.11698 0 9.78891 0.339183 10.7987 1.30512C12.0786 2.49594 11.9565 4.08494 11.9565 5.81403V9.89897C11.9565 11.1267 12.467 11.6649 12.9478 12.3285C13.118 12.5645 13.155 12.8484 12.9404 13.0253C12.4041 13.4714 11.4497 14.301 10.9245 14.7655L10.9171 14.7581" fill="white"/>
</svg>
