<svg width="121" height="35" viewBox="0 0 121 35" fill="none" xmlns="http://www.w3.org/2000/svg">
<g clip-path="url(#clip0_1123_11369)">
<path d="M110.042 19.2601C111.362 19.2601 112.471 19.7497 113.173 20.7773H113.205V19.5052H114.901V28.541H113.205V27.1383H113.173C112.536 28.2143 111.394 28.7693 110.107 28.7693C107.465 28.7693 105.313 26.7793 105.313 24.1699C105.313 21.283 107.384 19.2601 110.042 19.2601ZM83.0788 19.2601C85.5732 19.2601 87.9215 21.2177 87.8893 24.0885C87.8562 26.5495 85.7553 28.8577 82.7783 28.7662C80.254 28.6893 78.1085 26.5196 78.1377 23.9939C78.17 21.2692 80.3278 19.2601 83.0788 19.2601ZM96.744 19.2601C98.2448 19.2601 99.4674 20.3046 99.5166 21.9025H97.8206C97.7392 21.2508 97.3642 20.8103 96.6626 20.8103C96.0102 20.8103 95.6029 21.2508 95.6029 21.7719C95.6029 22.5389 96.3867 22.7672 97.2827 23.0447C98.5545 23.4359 99.7287 24.2022 99.7287 25.8824C99.7287 27.6271 98.4561 28.7693 96.6956 28.7693C95.065 28.7693 93.4989 27.6602 93.4989 25.5719H95.1956C95.2771 26.6656 95.8311 27.2198 96.7279 27.2198C97.511 27.2198 98.0327 26.714 98.0327 25.98C98.0327 25.3605 97.5601 24.9531 96.4997 24.6103C94.2819 23.9086 93.9069 22.9463 93.9069 21.9187C93.9069 20.32 95.2602 19.2601 96.744 19.2601ZM68.5552 16.4716C69.4919 16.4716 70.2511 17.2309 70.2511 18.1679V20.4675H70.2842C70.8221 19.6682 71.6866 19.2608 72.8116 19.2608C74.964 19.2608 76.5785 20.6305 76.5785 23.11V28.541H74.8826V23.6319C74.8826 21.6912 74.1326 20.8103 72.6325 20.8103C71.1479 20.8103 70.2511 21.8864 70.2511 23.648V28.541H68.5552V16.4716ZM91.5094 16.4716V19.5052H92.994V21.0548H91.5086V28.541C90.5727 28.541 89.8127 27.7816 89.8127 26.8447V21.0548H89.1126V19.5052H89.8127V16.4716H91.5086H91.5094ZM103.29 16.4716V19.5052H104.774V21.0548H103.29V28.541C102.354 28.541 101.594 27.7816 101.594 26.8447V21.0548H100.894V19.5052H101.594V16.4716H103.29H103.29ZM121 19.2608V21.0056C119.532 21.0548 118.782 21.951 118.782 23.469V26.8447C118.782 27.7816 118.023 28.541 117.086 28.541V19.5052H118.669V20.32H118.701C119.108 19.7174 119.81 19.3262 121 19.2608ZM82.9973 20.8103C81.0524 20.8103 79.4072 22.6973 79.932 24.8002C80.2886 26.2259 81.588 27.259 83.0573 27.219C84.7917 27.1706 86.1925 25.7848 86.1925 23.9908C86.1925 22.2284 84.774 20.8103 82.9973 20.8103ZM110.09 20.8103C108.3 20.8103 106.855 22.4275 107.021 24.3382C107.159 25.9139 108.446 27.1875 110.026 27.219C111.818 27.2551 113.238 25.7725 113.238 24.0393C113.238 22.2776 111.965 20.8103 110.09 20.8103Z" fill="white"/>
<path d="M29.2383 23.7198C29.2739 23.7247 29.2816 23.7262 29.3164 23.7307C29.8964 23.8095 30.4663 23.9141 30.9026 24.1091C31.3069 24.2877 31.5439 24.5136 31.7603 24.9164C32.0894 25.5272 32.1108 26.383 31.8135 27.0306C31.5913 27.5125 31.1037 27.9166 30.6586 28.1308C30.1963 28.3549 29.7408 28.4617 29.2185 28.5213C28.3048 28.6219 27.3181 28.4326 26.496 28.0349C26.0096 27.7974 25.4157 27.3882 25.1161 26.8612C24.8958 26.4751 24.9028 25.9727 25.1709 25.6057C25.5981 25.0208 26.5132 24.892 27.2025 24.9164C27.7279 24.9368 28.6741 25.0993 29.173 25.2768C29.3113 25.3268 29.8213 25.5255 29.9103 25.6167C29.9729 25.68 30.0136 25.7722 29.9854 25.8573C29.8714 26.2061 29.0242 26.3899 28.7795 26.4268C28.1245 26.5272 27.7847 26.2792 27.04 25.9852C26.8552 25.9128 26.6089 25.8325 26.4207 25.8151C26.0826 25.7828 25.6743 25.8775 25.6098 26.2466C25.5777 26.4369 25.8007 26.6148 25.9708 26.6896C26.3702 26.8612 26.695 26.9229 27.0881 26.9282C28.2494 26.9473 29.5545 26.7561 30.5044 26.0829C30.6344 25.9901 30.7621 25.8542 30.7635 25.6829C30.7676 25.3371 30.1614 25.1256 30.1614 25.1256C29.5215 24.8588 28.3393 24.7289 27.7302 24.6788C27.0911 24.6234 26.0854 24.5406 25.844 24.5051C25.5954 24.4696 25.3254 24.4194 25.1101 24.3229C24.8938 24.2252 24.6822 24.0065 24.6194 23.7645C24.5081 23.3284 24.6502 22.7932 24.8923 22.4448C25.527 21.5321 27.0138 21.1855 28.1244 21.0478C29.1995 20.914 30.9374 20.9154 31.9933 21.4766C32.1563 21.564 32.2395 21.6453 32.2055 21.8196C32.1367 22.1469 31.8908 22.3578 31.5927 22.4502C31.2801 22.5497 30.6333 22.5885 30.3492 22.6064C29.0762 22.6778 27.5379 22.6403 26.3253 22.9711C26.2304 22.9982 26.0663 23.0424 26.0129 23.102C25.8231 23.3081 26.3652 23.367 26.4813 23.3905C26.5159 23.3988 26.5226 23.4 26.5586 23.4039L29.2383 23.7198ZM21.6652 18.0424C21.6652 18.0424 21.8723 17.7317 22.0458 17.4961C22.3617 17.067 22.9334 16.4718 23.3639 16.1033C23.4956 15.9908 23.6509 15.8633 23.6509 15.8633C23.6509 15.8633 23.408 15.8885 23.2704 15.9166C22.9437 15.9802 22.4648 16.2986 22.2255 16.5043C21.8305 16.8425 21.3963 17.3921 21.5928 17.8805C21.6213 17.9495 21.6652 18.0424 21.6652 18.0424ZM23.8606 18.63C24.4845 18.5869 25.0688 18.4073 25.6129 18.1054C26.1465 17.8068 26.9313 17.2245 26.8499 16.5399C26.8252 16.3183 26.6801 16.151 26.497 16.0729C26.2591 15.9698 26.135 15.9864 25.831 16.0768C25.6102 16.1414 25.5107 16.1806 25.3021 16.3C24.6901 16.6557 23.8223 17.4168 23.3512 18.0243C23.2425 18.1675 23.1324 18.3277 23.0462 18.4376C22.9918 18.5053 22.9496 18.5674 22.9549 18.584C22.9737 18.6528 23.6169 18.6465 23.8606 18.63ZM22.2721 19.7969C22.2078 19.865 22.1397 20.0292 22.0691 20.148C22.0314 20.2116 21.9615 20.2935 21.9153 20.3263C21.7529 20.4457 21.6154 20.4513 21.4586 20.3133C21.2388 20.1188 21.1117 19.8181 21.1026 19.5255C21.0979 19.3978 21.1198 19.2565 21.0957 19.1489C21.0557 18.9672 20.8739 18.78 20.7759 18.6063C20.6608 18.4016 20.5677 18.0447 20.5561 17.8143C20.5166 17.0959 20.8952 16.4341 21.3871 15.9121C21.8824 15.3843 22.5304 14.9456 23.2352 14.647C23.9013 14.3663 24.8776 14.175 25.6091 14.4284C25.8473 14.51 26.1791 14.7127 26.3458 14.9251C26.3813 14.9692 26.4101 15.0168 26.4464 15.0402C26.479 15.0609 26.564 15.0691 26.6317 15.0815C26.865 15.122 27.201 15.2987 27.3382 15.4163C27.6139 15.6542 27.7649 15.8816 27.8348 16.2116C27.975 16.8756 27.5927 17.6041 27.1572 18.0475C26.4116 18.8106 25.6753 19.3471 24.7215 19.7206C24.3026 19.8843 23.6501 20.0372 23.1748 19.9944C23.0272 19.9822 22.8756 19.9433 22.7319 19.9338C22.6585 19.9274 22.3903 19.8583 22.3617 19.8387C22.3261 19.8114 22.2802 19.7877 22.2721 19.7969ZM23.124 21.2691C23.153 21.274 23.1978 21.287 23.2363 21.3018C23.5707 21.4291 23.7083 21.7386 23.7906 22.0786C23.9815 22.8681 24.063 24.6147 24.0947 25.2983C24.1181 25.8115 24.1309 26.3163 24.1524 26.8235C24.1706 27.253 24.2049 27.8241 24.1154 28.2265C24.0828 28.3712 23.986 28.5396 23.8474 28.6257C23.6887 28.7274 23.3273 28.7351 23.1287 28.6942C22.6391 28.5929 22.48 28.278 22.4102 27.7937C22.2441 26.6382 22.3241 24.3703 22.4221 23.4133C22.4547 23.0972 22.5737 22.0844 22.7387 21.6598C22.795 21.5166 22.915 21.2282 23.124 21.2691ZM8.2299 23.1918C8.2299 23.1918 7.50124 23.2434 6.99973 23.299C6.36169 23.3677 5.16283 23.5748 4.47082 23.8219C4.26325 23.8963 3.8416 24.0728 3.80496 24.2863C3.76644 24.5075 3.90375 24.6806 4.05645 24.8596C4.14475 24.9635 4.64451 25.4444 4.78466 25.5613C5.37208 26.0518 6.56321 26.8083 7.44051 27.1757C7.74192 27.3004 8.24052 27.4789 8.24052 27.4789C8.24052 27.4789 8.20349 26.0589 8.21013 24.6602C8.21399 23.9223 8.2299 23.1918 8.2299 23.1918ZM21.5906 23.7569C21.6323 24.1384 21.5343 24.8596 21.5173 24.9548C21.4862 25.174 21.3209 25.6798 21.2935 25.7416C21.16 26.049 21.0285 26.3008 20.889 26.552C20.6501 26.9822 20.0819 27.664 19.7446 27.9558C18.4904 29.0401 16.5488 29.6575 14.8831 29.8609C13.7528 29.9974 12.454 29.9774 11.2564 29.7557C10.8442 29.6808 10.2308 29.5394 10.2308 29.5394C10.2308 29.5394 10.2328 29.7847 10.2132 29.9572C10.2037 30.0359 10.1444 30.2431 10.1112 30.3102C10.0241 30.4901 9.88113 30.5829 9.67323 30.6229C9.42232 30.6694 9.15621 30.685 8.92435 30.5858C8.54367 30.4256 8.40701 30.0694 8.34067 29.6585C8.28702 29.33 8.23086 28.7588 8.23086 28.7588C8.23086 28.7588 7.94607 28.6239 7.70862 28.5054C6.97925 28.1459 6.28653 27.7104 5.6805 27.2625C5.5126 27.1371 4.79129 26.5329 4.63208 26.3829C4.18564 25.959 3.78403 25.5372 3.4785 24.9961C3.24098 24.5733 3.17258 24.1981 3.35323 23.7501C3.60234 23.1257 4.49735 22.6556 5.10989 22.3877C5.55949 22.1892 6.95749 21.7326 7.53821 21.6479C7.8125 21.6087 8.23795 21.5325 8.26409 21.5155C8.27479 21.5073 8.28219 21.5004 8.28992 21.4915C8.30332 21.4727 8.32592 20.8546 8.32154 20.6285C8.31588 20.4062 8.48603 18.9461 8.54071 18.6374C8.56924 18.4704 8.69566 17.8277 8.82472 17.6589C8.90916 17.5449 9.05844 17.5541 9.18016 17.629C9.84622 18.0433 10.0486 19.4799 10.0981 20.2109C10.1277 20.6563 10.1425 21.3263 10.1425 21.3263C10.1425 21.3263 10.9066 21.3036 11.3766 21.317C11.8333 21.3276 12.3368 21.3997 12.8108 21.4752C13.4178 21.5726 14.6008 21.8307 15.2793 22.1747C15.838 22.458 16.3609 22.9354 16.5304 23.4405C16.6878 23.9036 16.6642 24.2241 16.4244 24.642C16.1548 25.1139 15.6449 25.4647 15.1278 25.494C14.974 25.5029 14.3949 25.4259 14.2167 25.2879C14.1468 25.2329 14.1504 25.1337 14.2008 25.0663C14.22 25.0427 14.4906 24.8987 14.6504 24.8147C14.7305 24.7712 14.7968 24.7242 14.8594 24.6672C14.9921 24.5503 15.1116 24.4216 15.0982 24.2707C15.0799 24.0749 14.8727 23.9541 14.6752 23.8764C13.7487 23.5083 11.8989 23.2027 11.005 23.1498C10.6551 23.1293 10.1574 23.1117 10.1574 23.1117L10.2626 28.049C10.2626 28.049 10.6741 28.1274 10.9983 28.1799C11.1844 28.2081 11.9727 28.2791 12.1822 28.2843C13.7774 28.3264 15.5577 28.1835 17.0216 27.4926C17.6643 27.1901 18.2539 26.8135 18.7003 26.3036C19.2886 25.629 19.5967 24.7057 19.5152 23.7413C19.4258 22.6881 18.6847 21.4378 18.0929 20.6765C16.5293 18.6653 13.849 17.0108 11.4909 16.0408C9.08356 15.0512 6.70425 14.4819 4.14932 14.3865C3.49067 14.3621 2.05455 14.3953 1.3286 14.5962C1.22491 14.6254 1.12038 14.6604 1.0241 14.682C0.948037 14.7006 0.828183 14.751 0.795273 14.7776C0.777047 14.7923 0.759014 14.8128 0.759014 14.8128C0.759014 14.8128 0.803775 14.8375 0.846538 14.8556C0.923435 14.8892 1.24713 14.9093 1.41464 14.9399C1.5645 14.9681 1.72055 15.0469 1.78231 15.1567C1.84099 15.2611 1.84833 15.3434 1.77819 15.4305C1.61371 15.6306 0.994601 15.5968 0.721983 15.5537C0.438674 15.5085 0.0859382 15.4218 0.0211487 15.1751C-0.0540097 14.8845 0.0840061 14.5997 0.233099 14.3363C0.532638 13.8095 0.961691 13.5354 1.59001 13.3638C2.48244 13.1182 3.6093 12.9465 4.45201 12.9143C6.35937 12.8422 8.16459 13.1758 10.0126 13.737C11.0703 14.0569 12.4551 14.5937 13.4688 15.0819C14.1963 15.4327 15.3424 16.0778 15.9862 16.4994C16.1893 16.6335 17.3776 17.5068 17.5622 17.6603C17.9472 17.9752 18.4509 18.4278 18.8156 18.7897C19.5212 19.4891 20.3988 20.5611 20.8251 21.412C20.9277 21.6157 21.0072 21.8162 21.1396 22.0524C21.1851 22.1333 21.3798 22.6172 21.4122 22.7569C21.4443 22.8952 21.4913 23.0985 21.498 23.1066C21.5074 23.1809 21.5977 23.5966 21.5906 23.7569ZM45.5693 22.6652C44.6761 22.8712 42.3272 22.9856 42.3272 22.9856L42.0311 23.9136C42.0311 23.9136 43.2049 23.8134 44.0588 23.9026C44.0588 23.9026 44.3355 23.8704 44.368 24.2168C44.379 24.5397 44.3405 24.8863 44.3405 24.8863C44.3405 24.8863 44.3228 25.096 44.0257 25.1493C43.7038 25.203 41.4957 25.2884 41.4957 25.2884L41.1382 26.498C41.1382 26.498 41.0053 26.7776 41.3031 26.6978C41.5798 26.6237 43.8934 26.1895 44.1947 26.252C44.5177 26.3322 44.875 26.7628 44.7717 27.1552C44.6486 27.6417 42.3394 29.1147 40.9332 29.0119C40.9332 29.0119 40.1942 29.0595 39.5696 28.062C38.9879 27.1115 39.7901 25.3117 39.7901 25.3117C39.7901 25.3117 39.4224 24.4715 39.6889 24.1867C39.6889 24.1867 39.8474 24.0428 40.3096 24.0103L40.8756 22.8391C40.8756 22.8391 40.2309 22.8835 39.8474 22.4092C39.4902 21.9591 39.4602 21.7523 39.7341 21.628C40.027 21.4834 42.7117 20.9933 44.5591 21.0554C44.5591 21.0554 45.2012 20.9924 45.758 22.1063C45.7581 22.1063 46.0278 22.5568 45.5693 22.6652ZM38.6208 27.1683C38.384 27.7253 37.7586 28.3198 36.9817 27.9503C36.2147 27.58 34.993 25.0791 34.993 25.0791C34.993 25.0791 34.5293 24.1465 34.4401 24.1706C34.4401 24.1706 34.3399 23.9885 34.2784 25.0075C34.2145 26.0223 34.2907 28.001 33.886 28.3124C33.5026 28.6247 33.0384 28.5004 32.7977 28.1355C32.5788 27.7761 32.4878 26.922 32.6072 25.4219C32.7475 23.919 33.0966 22.3199 33.5425 21.8219C33.9879 21.3273 34.3455 21.6864 34.4848 21.8167C34.4848 21.8167 35.0806 22.3567 36.063 23.9426L36.2363 24.2359C36.2363 24.2359 37.1291 25.7342 37.2223 25.7307C37.2223 25.7307 37.2953 25.7996 37.3604 25.7501C37.4541 25.7233 37.4163 25.2429 37.4163 25.2429C37.4163 25.2429 37.231 23.6101 36.4166 20.8463C36.4166 20.8463 36.2935 20.5017 36.3767 20.1788C36.4594 19.8525 36.7865 20.0056 36.7865 20.0056C36.7865 20.0056 38.0488 20.6405 38.6615 22.6961C39.2702 24.7523 38.8611 26.6071 38.6208 27.1683ZM52.2063 25.9372C51.6317 26.94 50.0095 29.0397 47.8537 28.5439C47.1418 30.2707 46.5437 32.0175 46.2017 34.6312C46.2017 34.6312 46.1266 35.1392 45.7045 34.9627C45.2863 34.8163 44.5974 34.1208 44.458 33.1586C44.3081 31.8947 44.8707 29.7581 46.0204 27.3081C45.6851 26.7628 45.4565 25.9838 45.6522 24.8744C45.6522 24.8744 45.941 22.8145 48.0094 20.9578C48.0094 20.9578 48.2574 20.7436 48.4011 20.8096C48.5595 20.876 48.4861 21.5463 48.3605 21.8722C48.2299 22.1963 47.3091 23.7908 47.3091 23.7908C47.3091 23.7908 46.7347 24.8681 46.8963 25.7177C47.9811 24.0495 50.4471 20.6856 51.9756 21.7464C52.489 22.1138 52.7257 22.913 52.7257 23.7742C52.726 24.5307 52.5436 25.3346 52.2063 25.9372ZM51.7602 23.2952C51.7602 23.2952 51.6752 22.632 51.0269 23.3627C50.4693 23.9792 49.4636 25.1345 48.6539 26.7036C49.5034 26.6082 50.3228 26.1473 50.5705 25.9125C50.9733 25.555 51.9116 24.5852 51.7602 23.2952ZM64.0823 23.1442H60.1313C60.0525 21.8011 59.8904 20.4927 59.6356 19.1452C59.6094 19.0058 59.4881 18.9046 59.3468 18.9046H58.436C58.3567 18.9046 58.2817 18.9403 58.2303 19.0024C58.1788 19.0656 58.1586 19.146 58.1737 19.2247C58.4326 20.5286 58.5965 21.812 58.6774 23.1455H54.8762C54.6991 23.1455 54.5553 23.289 54.5553 23.4654V24.2871C54.5553 24.4639 54.6991 24.6084 54.8762 24.6084H58.7318C58.7342 24.8112 58.7362 24.9928 58.7362 25.1632C58.7362 26.3474 58.6852 27.3229 58.5658 28.4238C58.5564 28.5089 58.5843 28.5936 58.6419 28.656C58.6978 28.719 58.7784 28.7548 58.862 28.7548H59.7067C59.8717 28.7548 60.0082 28.6308 60.0248 28.4666C60.1402 27.3582 60.1896 26.3706 60.1896 25.1631C60.1896 24.9934 60.1878 24.8111 60.1853 24.6083H64.0823C64.259 24.6083 64.4032 24.4639 64.4032 24.287V23.4653C64.4031 23.2881 64.2589 23.1442 64.0823 23.1442Z" fill="white"/>
<path d="M11.2521 12.1333C11.1961 12.2165 11.1826 12.3186 11.2147 12.4146C11.2483 12.5103 11.3213 12.5831 11.4155 12.6161L12.1238 12.8545C12.1666 12.8679 12.2092 12.8749 12.2509 12.8749C12.3822 12.8749 12.5054 12.81 12.5783 12.7008C14.8983 9.29197 18.038 6.45371 21.6588 4.49287C25.3967 2.46825 29.6318 1.39733 33.9075 1.39733C39.0718 1.39733 44.0547 2.92104 48.3177 5.80342C52.4773 8.61495 55.7078 12.5375 57.66 17.1473C57.7183 17.2852 57.853 17.3742 58.0023 17.3742H58.8481C58.9455 17.3742 59.0372 17.3251 59.0924 17.2436C59.1477 17.1623 59.1581 17.0591 59.1213 16.9677C57.1084 12.0113 53.7044 7.7861 49.2761 4.7506C44.7429 1.64295 39.4285 0 33.9075 0C24.7802 0 16.3106 4.53596 11.2521 12.1333Z" fill="white"/>
</g>
<defs>
<clipPath id="clip0_1123_11369">
<rect width="121" height="35" fill="white"/>
</clipPath>
</defs>
</svg>
