<svg width="56" height="19" viewBox="0 0 56 19" fill="none" xmlns="http://www.w3.org/2000/svg">
<path d="M3.9712 13.4222C4.20034 14.0293 4.51758 14.5484 4.92298 14.9795C5.32838 15.4106 5.80866 15.7406 6.36382 15.9694C6.91903 16.1981 7.52268 16.3125 8.17483 16.3125C8.80937 16.3125 9.40419 16.1937 9.95941 15.9561C10.5146 15.7185 10.9993 15.3842 11.4135 14.9531C11.8276 14.5219 12.1493 14.0073 12.3785 13.409C12.6076 12.8107 12.7221 12.142 12.7221 11.4029V0H15.4981V18.4769H12.7486V16.7612C12.1317 17.4122 11.4046 17.9137 10.5674 18.2657C9.73021 18.6176 8.82698 18.7936 7.85759 18.7936C6.87054 18.7936 5.94964 18.622 5.0948 18.2789C4.24001 17.9358 3.4997 17.4475 2.87405 16.814C2.2484 16.1804 1.75485 15.4195 1.39356 14.5308C1.03221 13.6421 0.851562 12.6523 0.851562 11.5612V0H3.62752V11.4029C3.62752 12.142 3.74206 12.815 3.9712 13.4222ZM20.2831 0V6.73085C20.9 6.11496 21.6138 5.62669 22.4246 5.26592C23.2353 4.90515 24.1166 4.72479 25.0683 4.72479C26.0554 4.72479 26.9806 4.90953 27.8443 5.27906C28.7079 5.64859 29.4569 6.15012 30.0915 6.78365C30.726 7.41718 31.2283 8.165 31.5985 9.02725C31.9686 9.88955 32.1536 10.8046 32.1536 11.7724C32.1536 12.7402 31.9686 13.6509 31.5985 14.5043C31.2283 15.3578 30.726 16.1013 30.0915 16.7347C29.4569 17.3682 28.7079 17.8698 27.8443 18.2393C26.9806 18.6088 26.0553 18.7936 25.0683 18.7936C24.1165 18.7936 23.2309 18.6132 22.4114 18.2524C21.5918 17.8917 20.8735 17.4034 20.2567 16.7875V18.4768H17.6129V0H20.2831ZM20.5871 13.5937C20.825 14.1568 21.1556 14.6496 21.5786 15.0719C22.0016 15.4942 22.4951 15.8286 23.0591 16.0749C23.6231 16.3213 24.2311 16.4445 24.8833 16.4445C25.5178 16.4445 26.117 16.3213 26.681 16.0749C27.245 15.8286 27.7341 15.4943 28.1484 15.0719C28.5625 14.6496 28.893 14.1568 29.1397 13.5937C29.3865 13.0306 29.5099 12.4235 29.5099 11.7724C29.5099 11.1213 29.3865 10.5098 29.1397 9.93791C28.893 9.366 28.5625 8.86891 28.1484 8.44658C27.7341 8.0243 27.2451 7.69431 26.681 7.45678C26.117 7.21924 25.5178 7.10038 24.8833 7.10038C24.2488 7.10038 23.6495 7.21918 23.0856 7.45678C22.5216 7.69437 22.0281 8.0243 21.605 8.44658C21.1821 8.86891 20.8471 9.366 20.6004 9.93791C20.3536 10.5098 20.2303 11.1213 20.2303 11.7724C20.2302 12.4235 20.3492 13.0306 20.5871 13.5937ZM33.6603 9.05371C34.0128 8.20904 34.4976 7.46559 35.1144 6.82331C35.7312 6.18102 36.4627 5.67511 37.3087 5.30558C38.1547 4.93604 39.0713 4.75131 40.0583 4.75131C41.0276 4.75131 41.9265 4.92728 42.7549 5.27918C43.5833 5.63113 44.2971 6.11946 44.8964 6.74417C45.4956 7.36882 45.9627 8.10794 46.2975 8.96137C46.6324 9.81485 46.7999 10.7431 46.7999 11.7462V12.6172H35.8282C35.9164 13.1627 36.0927 13.6686 36.357 14.1349C36.6214 14.6012 36.9518 15.0059 37.3484 15.3491C37.745 15.6923 38.1944 15.9606 38.6967 16.1541C39.1991 16.3477 39.7322 16.4445 40.2962 16.4445C41.9002 16.4445 43.1956 15.7846 44.1826 14.4648L46.1126 15.8902C45.4428 16.7876 44.6145 17.4915 43.6275 18.0018C42.6404 18.5121 41.53 18.7673 40.2963 18.7673C39.2916 18.7673 38.3531 18.5912 37.4807 18.2393C36.6082 17.8875 35.8503 17.3947 35.207 16.7612C34.5637 16.1276 34.057 15.3842 33.6869 14.5308C33.3168 13.6773 33.1317 12.749 33.1317 11.746C33.1315 10.7958 33.3079 9.89837 33.6603 9.05371ZM37.3748 8.01105C36.6258 8.63575 36.1279 9.46722 35.8811 10.5054H44.1033C43.8741 9.46722 43.385 8.63575 42.636 8.01105C41.8869 7.3864 41.01 7.07404 40.0054 7.07404C39.0008 7.07404 38.1239 7.3864 37.3748 8.01105ZM51.7964 8.31458C51.2325 8.93047 50.9504 9.76631 50.9504 10.8222V18.4769H48.2802V5.01518H50.9239V6.67811C51.2588 6.1326 51.6951 5.70145 52.2326 5.38472C52.7702 5.06792 53.4091 4.90953 54.1494 4.90953H55.0747V7.39072H53.9643C53.0831 7.39078 52.3604 7.69869 51.7964 8.31458Z" fill="white"/>
</svg>
