<svg width="129" height="28" viewBox="0 0 129 28" fill="none" xmlns="http://www.w3.org/2000/svg">
<path d="M22.8475 8.28512C22.2889 7.9411 21.5626 7.9411 20.9482 8.28512L16.5909 10.9226L13.6302 12.6426L9.27306 15.2802C8.71447 15.6242 7.98824 15.6242 7.37376 15.2802L3.91033 13.2161C3.35171 12.8721 2.96067 12.2414 2.96067 11.5533V7.48241C2.96067 6.79437 3.29584 6.16367 3.91033 5.81965L7.3179 3.81287C7.87651 3.46885 8.60268 3.46885 9.21721 3.81287L12.6248 5.81965C13.1834 6.16367 13.5744 6.79437 13.5744 7.48241V10.1199L16.5351 8.34245V5.70498C16.5351 5.01694 16.2 4.38624 15.5854 4.04222L9.27306 0.258014C8.71447 -0.0860048 7.98824 -0.0860048 7.37376 0.258014L0.949654 4.04222C0.335171 4.38624 0 5.01694 0 5.70498V13.3307C0 14.0187 0.335171 14.6495 0.949654 14.9935L7.37376 18.7776C7.93238 19.1217 8.65861 19.1217 9.27306 18.7776L13.6302 16.1975L16.5909 14.4201L20.9482 11.84C21.5068 11.496 22.233 11.496 22.8475 11.84L26.255 13.8468C26.8137 14.1908 27.2047 14.8215 27.2047 15.5095V19.5804C27.2047 20.2684 26.8695 20.8991 26.255 21.2431L22.8475 23.3073C22.2889 23.6513 21.5626 23.6513 20.9482 23.3073L17.5406 21.3005C16.982 20.9565 16.5909 20.3258 16.5909 19.6377V17.0003L13.6302 18.7776V21.4152C13.6302 22.1032 13.9654 22.7339 14.58 23.0779L21.004 26.8622C21.5626 27.2062 22.2889 27.2062 22.9033 26.8622L29.3275 23.0779C29.8861 22.7339 30.2771 22.1032 30.2771 21.4152V13.7894C30.2771 13.1014 29.9419 12.4707 29.3275 12.1267L22.8475 8.28512Z" fill="white"/>
<path d="M42.0718 24.6816V18.3507C42.7531 19.2152 43.9893 19.6982 45.4275 19.6982C49.086 19.6982 51.5586 17.0795 51.5586 13.0877C51.5586 9.09596 49.2878 6.47717 45.7303 6.47717C44.0903 6.47717 42.8287 7.08738 42.0718 8.07896V6.68057H38.5647V24.6816H42.0718ZM44.9986 16.6472C43.1063 16.6472 41.87 15.2234 41.87 13.0877C41.87 10.9266 43.1063 9.50276 44.9986 9.50276C46.8404 9.50276 48.102 10.9266 48.102 13.0877C48.102 15.2234 46.8404 16.6472 44.9986 16.6472Z" fill="white"/>
<path d="M59.5224 19.6982C63.4332 19.6982 66.2339 16.9015 66.2339 13.0877C66.2339 9.27394 63.4332 6.47717 59.5224 6.47717C55.6117 6.47717 52.811 9.27394 52.811 13.0877C52.811 16.9015 55.6117 19.6982 59.5224 19.6982ZM59.5224 16.6472C57.6301 16.6472 56.3433 15.198 56.3433 13.0877C56.3433 10.952 57.6301 9.50276 59.5224 9.50276C61.4148 9.50276 62.7016 10.952 62.7016 13.0877C62.7016 15.198 61.4148 16.6472 59.5224 16.6472Z" fill="white"/>
<path d="M71.8611 19.4947V1.1123H68.354V19.4947H71.8611Z" fill="white"/>
<path d="M82.4036 6.68066L79.7544 14.9438L77.0799 6.68066H73.4971L78.1144 19.3932L76.2473 24.6817H79.603L81.3944 19.4441L86.0117 6.68066H82.4036Z" fill="white"/>
<path d="M95.8614 7.95183C95.1546 7.06195 93.8935 6.47717 92.3545 6.47717C88.6449 6.47717 86.3999 9.09596 86.3999 13.0877C86.3999 17.0795 88.6449 19.6982 92.4045 19.6982C93.8935 19.6982 95.2301 19.1389 95.8869 18.1982V19.8762C95.8869 21.0712 95.1046 21.9102 94.0444 21.9102H88.1907V24.6816H94.5995C97.4759 24.6816 99.3938 22.9272 99.3938 20.2576V6.68057H95.8614V7.95183ZM92.9596 16.6472C91.0925 16.6472 89.856 15.2488 89.856 13.0877C89.856 10.9266 91.0925 9.50276 92.9596 9.50276C94.8521 9.50276 96.0886 10.9266 96.0886 13.0877C96.0886 15.2488 94.8521 16.6472 92.9596 16.6472Z" fill="white"/>
<path d="M108.235 19.6982C112.146 19.6982 114.946 16.9015 114.946 13.0877C114.946 9.27394 112.146 6.47717 108.235 6.47717C104.324 6.47717 101.523 9.27394 101.523 13.0877C101.523 16.9015 104.324 19.6982 108.235 19.6982ZM108.235 16.6472C106.342 16.6472 105.056 15.198 105.056 13.0877C105.056 10.952 106.342 9.50276 108.235 9.50276C110.127 9.50276 111.414 10.952 111.414 13.0877C111.414 15.198 110.127 16.6472 108.235 16.6472Z" fill="white"/>
<path d="M120.397 19.4948V12.4775C120.397 10.8249 121.482 9.62989 123.021 9.62989C124.484 9.62989 125.468 10.7486 125.468 12.2995V19.4948H129V11.5113C129 8.56203 127.133 6.47717 124.256 6.47717C122.516 6.47717 121.103 7.2145 120.397 8.46033V6.68057H116.865V19.4948H120.397Z" fill="white"/>
</svg>
