<svg width="92" height="31" viewBox="0 0 92 31" fill="none" xmlns="http://www.w3.org/2000/svg">
<path d="M89.2935 18.4629L91.854 20.1699C91.023 21.394 89.0352 23.4941 85.5986 23.4941C81.3311 23.4941 78.1528 20.1924 78.1528 15.9922C78.1528 11.5225 81.3648 8.49023 85.2393 8.49023C89.1362 8.49023 91.0454 11.5898 91.6631 13.2632L92 14.1167L81.96 18.272C82.7236 19.7769 83.9141 20.5405 85.5986 20.5405C87.2832 20.5405 88.4512 19.7095 89.2935 18.4629ZM81.4209 15.7563L88.1255 12.9712C87.7549 12.0391 86.6543 11.3765 85.3403 11.3765C83.667 11.3765 81.3423 12.8589 81.4209 15.7563Z" fill="white"/>
<path d="M73.3125 0.842285H76.5469V22.8091H73.3125V0.842285Z" fill="white"/>
<path d="M68.2139 9.07422H71.3359V22.416C71.3359 27.9526 68.0679 30.2324 64.2046 30.2324C60.5659 30.2324 58.376 27.7842 57.5562 25.7964L60.4199 24.606C60.9365 25.8301 62.1831 27.2788 64.2046 27.2788C66.6865 27.2788 68.2139 25.7402 68.2139 22.8652V21.7871H68.1016C67.3604 22.6856 65.9453 23.4941 64.1484 23.4941C60.3975 23.4941 56.9609 20.2261 56.9609 16.0147C56.9609 11.7808 60.3975 8.479 64.1484 8.479C65.9341 8.479 67.3604 9.27637 68.1016 10.1523H68.2139V9.07422ZM68.4385 16.0147C68.4385 13.3643 66.6753 11.4326 64.4292 11.4326C62.1606 11.4326 60.2515 13.3643 60.2515 16.0147C60.2515 18.6314 62.1606 20.5293 64.4292 20.5293C66.6753 20.5405 68.4385 18.6314 68.4385 16.0147Z" fill="white"/>
<path d="M39.2056 15.9584C39.2056 20.2821 35.8364 23.4603 31.7036 23.4603C27.5708 23.4603 24.2017 20.2709 24.2017 15.9584C24.2017 11.6122 27.5708 8.44519 31.7036 8.44519C35.8364 8.44519 39.2056 11.6122 39.2056 15.9584ZM35.9263 15.9584C35.9263 13.2631 33.9722 11.41 31.7036 11.41C29.4351 11.41 27.481 13.2631 27.481 15.9584C27.481 18.6312 29.4351 20.5067 31.7036 20.5067C33.9722 20.5067 35.9263 18.6312 35.9263 15.9584Z" fill="white"/>
<path d="M55.5908 15.9922C55.5908 20.3159 52.2217 23.4941 48.0889 23.4941C43.9561 23.4941 40.5869 20.3159 40.5869 15.9922C40.5869 11.646 43.9561 8.49023 48.0889 8.49023C52.2217 8.49023 55.5908 11.6348 55.5908 15.9922ZM52.3003 15.9922C52.3003 13.2969 50.3462 11.4438 48.0776 11.4438C45.8091 11.4438 43.855 13.2969 43.855 15.9922C43.855 18.665 45.8091 20.5405 48.0776 20.5405C50.3574 20.5405 52.3003 18.6538 52.3003 15.9922Z" fill="white"/>
<path d="M11.8706 20.2036C7.16504 20.2036 3.48145 16.4077 3.48145 11.7022C3.48145 6.99658 7.16504 3.20068 11.8706 3.20068C14.4087 3.20068 16.2617 4.2002 17.6318 5.48047L19.8892 3.22315C17.98 1.39258 15.4307 0 11.8706 0C5.42432 0 0 5.25586 0 11.7022C0 18.1484 5.42432 23.4043 11.8706 23.4043C15.3521 23.4043 17.98 22.2588 20.0352 20.125C22.1465 18.0137 22.7979 15.0488 22.7979 12.6455C22.7979 11.8931 22.708 11.1182 22.6069 10.5454H11.8706V13.6675H19.5186C19.2939 15.6216 18.6763 16.958 17.7666 17.8677C16.666 18.9795 14.9253 20.2036 11.8706 20.2036Z" fill="white"/>
</svg>
