<svg width="24" height="24" viewBox="0 0 24 24" fill="none" xmlns="http://www.w3.org/2000/svg">
<path d="M12 2.14262C15.1791 2.14262 15.5555 2.15657 16.8058 2.21234C17.9677 2.26347 18.5952 2.45867 19.0135 2.62135C19.5666 2.83514 19.9663 3.09542 20.3799 3.50907C20.7982 3.92737 21.0539 4.32243 21.2677 4.87552C21.4303 5.29382 21.6255 5.92591 21.6767 7.08321C21.7324 8.33811 21.7464 8.71458 21.7464 11.889C21.7464 15.0681 21.7324 15.4446 21.6767 16.6948C21.6255 17.8568 21.4303 18.4842 21.2677 18.9025C21.0539 19.4556 20.7936 19.8553 20.3799 20.2689C19.9616 20.6872 19.5666 20.9429 19.0135 21.1567C18.5952 21.3193 17.9631 21.5146 16.8058 21.5657C15.5509 21.6215 15.1744 21.6354 12 21.6354C8.82091 21.6354 8.44444 21.6215 7.19419 21.5657C6.03225 21.5146 5.4048 21.3193 4.9865 21.1567C4.43341 20.9429 4.0337 20.6826 3.62005 20.2689C3.20175 19.8506 2.94612 19.4556 2.73233 18.9025C2.56965 18.4842 2.37445 17.8521 2.32332 16.6948C2.26755 15.4399 2.2536 15.0634 2.2536 11.889C2.2536 8.70993 2.26755 8.33346 2.32332 7.08321C2.37445 5.92127 2.56965 5.29382 2.73233 4.87552C2.94612 4.32243 3.2064 3.92272 3.62005 3.50907C4.03835 3.09077 4.43341 2.83514 4.9865 2.62135C5.4048 2.45867 6.03689 2.26347 7.19419 2.21234C8.44444 2.15657 8.82091 2.14262 12 2.14262ZM12 0C8.76979 0 8.36543 0.0139433 7.09659 0.0697166C5.83239 0.12549 4.96326 0.329992 4.21032 0.622802C3.42484 0.929555 2.76021 1.33391 2.10023 1.99854C1.4356 2.65853 1.03124 3.32316 0.724487 4.10399C0.431677 4.86157 0.227175 5.72606 0.171401 6.99025C0.115628 8.26374 0.101685 8.6681 0.101685 11.8983C0.101685 15.1285 0.115628 15.5329 0.171401 16.8017C0.227175 18.0659 0.431677 18.935 0.724487 19.688C1.03124 20.4735 1.4356 21.1381 2.10023 21.7981C2.76021 22.458 3.42484 22.8671 4.20567 23.1692C4.96326 23.462 5.82774 23.6665 7.09194 23.7222C8.36078 23.778 8.76514 23.792 11.9953 23.792C15.2255 23.792 15.6299 23.778 16.8987 23.7222C18.1629 23.6665 19.0321 23.462 19.785 23.1692C20.5658 22.8671 21.2305 22.458 21.8905 21.7981C22.5504 21.1381 22.9594 20.4735 23.2616 19.6926C23.5544 18.935 23.7589 18.0706 23.8146 16.8064C23.8704 15.5375 23.8844 15.1332 23.8844 11.903C23.8844 8.67275 23.8704 8.26839 23.8146 6.99955C23.7589 5.73535 23.5544 4.86622 23.2616 4.11328C22.9687 3.32316 22.5644 2.65853 21.8998 1.99854C21.2398 1.33856 20.5751 0.929555 19.7943 0.62745C19.0367 0.33464 18.1722 0.130138 16.908 0.0743644C15.6346 0.0139433 15.2302 0 12 0Z" fill="white"/>
<path d="M12 5.7865C8.62572 5.7865 5.88818 8.52404 5.88818 11.8983C5.88818 15.2726 8.62572 18.0101 12 18.0101C15.3743 18.0101 18.1118 15.2726 18.1118 11.8983C18.1118 8.52404 15.3743 5.7865 12 5.7865ZM12 15.8629C9.81091 15.8629 8.03546 14.0874 8.03546 11.8983C8.03546 9.70922 9.81091 7.93377 12 7.93377C14.1891 7.93377 15.9646 9.70922 15.9646 11.8983C15.9646 14.0874 14.1891 15.8629 12 15.8629Z" fill="white"/>
<path d="M19.7804 5.54479C19.7804 6.33491 19.139 6.97166 18.3535 6.97166C17.5634 6.97166 16.9266 6.33026 16.9266 5.54479C16.9266 4.75467 17.568 4.11792 18.3535 4.11792C19.139 4.11792 19.7804 4.75931 19.7804 5.54479Z" fill="white"/>
</svg>
