<svg width="24" height="24" viewBox="0 0 24 24" fill="none" xmlns="http://www.w3.org/2000/svg">
<path d="M22.1876 0H1.90939C0.938001 0 0.152527 0.766883 0.152527 1.71503V22.0769C0.152527 23.0251 0.938001 23.7966 1.90939 23.7966H22.1876C23.159 23.7966 23.9491 23.0251 23.9491 22.0816V1.71503C23.9491 0.766883 23.159 0 22.1876 0ZM7.2125 20.2782H3.68019V8.91908H7.2125V20.2782ZM5.44634 7.37137C4.31229 7.37137 3.39667 6.45576 3.39667 5.32635C3.39667 4.19694 4.31229 3.28133 5.44634 3.28133C6.57575 3.28133 7.49136 4.19694 7.49136 5.32635C7.49136 6.45111 6.57575 7.37137 5.44634 7.37137ZM20.4308 20.2782H16.9031V14.7567C16.9031 13.4414 16.8799 11.7449 15.0672 11.7449C13.2314 11.7449 12.9525 13.1811 12.9525 14.6637V20.2782H9.42949V8.91908H12.8131V10.4714H12.8595C13.329 9.57907 14.4816 8.63557 16.1966 8.63557C19.7708 8.63557 20.4308 10.9873 20.4308 14.0456V20.2782Z" fill="white"/>
</svg>
