<svg width="24" height="20" viewBox="0 0 24 20" fill="none" xmlns="http://www.w3.org/2000/svg">
<path d="M7.53701 19.5658C16.5147 19.5658 21.4264 12.1261 21.4264 5.67639C21.4264 5.46724 21.4218 5.25344 21.4125 5.04429C22.368 4.3533 23.1925 3.49741 23.8475 2.51683C22.9576 2.91275 22.0128 3.17132 21.0453 3.28372C22.064 2.67311 22.8267 1.71387 23.1921 0.583825C22.2338 1.15176 21.1858 1.55239 20.093 1.76854C19.3567 0.98618 18.3831 0.468163 17.3229 0.294581C16.2627 0.120999 15.1748 0.301521 14.2274 0.808236C13.2801 1.31495 12.526 2.11964 12.0819 3.09788C11.6377 4.07613 11.5282 5.17345 11.7702 6.22018C9.82975 6.12281 7.93142 5.61873 6.19828 4.74063C4.46514 3.86253 2.93588 2.63001 1.70963 1.12297C1.08639 2.19751 0.895678 3.46904 1.17625 4.67915C1.45683 5.88925 2.18764 6.94712 3.22016 7.63775C2.44501 7.61314 1.68684 7.40444 1.00828 7.02889V7.08932C1.00759 8.21697 1.39743 9.31006 2.11154 10.1828C2.82565 11.0555 3.81995 11.654 4.92543 11.8765C4.20737 12.073 3.45374 12.1016 2.72285 11.9602C3.03479 12.93 3.64172 13.7782 4.45894 14.3864C5.27615 14.9947 6.26287 15.3326 7.28139 15.3531C5.55225 16.7113 3.41625 17.448 1.21743 17.4446C0.827491 17.444 0.437933 17.4201 0.0508423 17.373C2.28461 18.8061 4.88307 19.5672 7.53701 19.5658Z" fill="white"/>
</svg>
